<svg width="9" height="9" viewBox="0 0 9 9" fill="none" xmlns="http://www.w3.org/2000/svg">
<path d="M7.64645 8.35355C7.84171 8.54882 8.15829 8.54882 8.35355 8.35355C8.54882 8.15829 8.54882 7.84171 8.35355 7.64645L7.64645 8.35355ZM0.999999 1L0.999999 0.500001C0.723857 0.500001 0.499999 0.723858 0.499999 1L0.999999 1ZM7.1113 1.5C7.38744 1.5 7.6113 1.27614 7.6113 1C7.6113 0.723857 7.38744 0.5 7.1113 0.5L7.1113 1.5ZM0.5 6.5556C0.5 6.83174 0.723858 7.0556 1 7.0556C1.27614 7.0556 1.5 6.83174 1.5 6.5556L0.5 6.5556ZM8.35355 7.64645L1.35355 0.646447L0.646446 1.35355L7.64645 8.35355L8.35355 7.64645ZM7.1113 0.5L0.999999 0.500001L0.999999 1.5L7.1113 1.5L7.1113 0.5ZM1.5 6.5556L1.5 1L0.499999 1L0.5 6.5556L1.5 6.5556Z" fill="white"/>
</svg>
