<svg width="17" height="17" viewBox="0 0 17 17" fill="none" xmlns="http://www.w3.org/2000/svg">
<circle cx="8.5" cy="8.5" r="8" stroke="white"/>
<path d="M7.25 10.4901H8.46875V10.4091C8.4858 9.42898 8.76705 8.99006 9.49148 8.54261C10.2543 8.08239 10.723 7.43466 10.723 6.47585C10.723 5.09091 9.67472 4.15341 8.1108 4.15341C6.67472 4.15341 5.52415 4.9929 5.46875 6.52699H6.7642C6.81534 5.62358 7.45881 5.22727 8.1108 5.22727C8.83523 5.22727 9.4233 5.70881 9.4233 6.46307C9.4233 7.09801 9.02699 7.54545 8.51989 7.8608C7.72727 8.34659 7.25852 8.82812 7.25 10.4091V10.4901ZM7.89347 13.081C8.35795 13.081 8.74574 12.7017 8.74574 12.2287C8.74574 11.7642 8.35795 11.3807 7.89347 11.3807C7.42472 11.3807 7.04119 11.7642 7.04119 12.2287C7.04119 12.7017 7.42472 13.081 7.89347 13.081Z" fill="white"/>
</svg>
