<svg width="59" height="79" viewBox="0 0 59 79" fill="none" xmlns="http://www.w3.org/2000/svg">
<path d="M35.6845 63.6122C38.9982 63.6122 41.6845 60.926 41.6845 57.6123C41.6845 54.2986 38.9982 51.6123 35.6845 51.6123C32.3708 51.6123 29.6846 54.2986 29.6846 57.6123C29.6846 60.926 32.3708 63.6122 35.6845 63.6122Z" fill="white"/>
<path d="M35.6845 63.6122C38.9982 63.6122 41.6845 60.926 41.6845 57.6123C41.6845 54.2986 38.9982 51.6123 35.6845 51.6123C32.3708 51.6123 29.6846 54.2986 29.6846 57.6123C29.6846 60.926 32.3708 63.6122 35.6845 63.6122Z" stroke="#242D3C" stroke-width="2.41" stroke-miterlimit="10"/>
<path d="M49.4835 38.1134V37.3394C49.4835 36.1874 49.2675 35.0234 48.7995 33.8954C48.3316 32.7674 47.6596 31.7894 46.8496 30.9734L43.4836 27.6074H41.6836V58.0992" stroke="#242D3C" stroke-width="2.41" stroke-miterlimit="10"/>
<path d="M23.6819 63.6152H7.99805" stroke="#242D3C" stroke-width="2.41" stroke-miterlimit="10"/>
<path d="M23.6819 57.6133H7.99805" stroke="#242D3C" stroke-width="2.41" stroke-miterlimit="10"/>
<path d="M23.6819 51.6152H7.99805" stroke="#242D3C" stroke-width="2.41" stroke-miterlimit="10"/>
<path d="M35.6819 45.6152H7.99805" stroke="#242D3C" stroke-width="2.41" stroke-miterlimit="10"/>
<path d="M35.6819 39.6143H7.99805" stroke="#242D3C" stroke-width="2.41" stroke-miterlimit="10"/>
<path d="M35.6819 33.6152H7.99805" stroke="#242D3C" stroke-width="2.41" stroke-miterlimit="10"/>
<path d="M35.6819 27.6152H7.99805" stroke="#242D3C" stroke-width="2.41" stroke-miterlimit="10"/>
<path d="M7.99805 14.2275H10.998" stroke="#F96232" stroke-width="2.41" stroke-miterlimit="10"/>
<path d="M13.999 14.2266H16.999" stroke="#F96232" stroke-width="2.41" stroke-miterlimit="10"/>
<path d="M19.999 14.2266H22.999" stroke="#F96232" stroke-width="2.41" stroke-miterlimit="10"/>
<path d="M44.7557 2.00098H2V77.0005H56.9836V14.2289L44.7557 2.00098Z" stroke="#242D3C" stroke-width="2.41" stroke-miterlimit="10"/>
<path d="M44.7549 2V14.2279H56.9828" stroke="#242D3C" stroke-width="2.41" stroke-miterlimit="10"/>
</svg>
