<?xml version="1.0" encoding="utf-8"?>
<!-- Generator: Adobe Illustrator 23.0.2, SVG Export Plug-In . SVG Version: 6.00 Build 0)  -->
<svg version="1.1" id="Слой_1" xmlns="http://www.w3.org/2000/svg" xmlns:xlink="http://www.w3.org/1999/xlink" x="0px" y="0px"
	 viewBox="0 0 70.5 77.4" style="enable-background:new 0 0 70.5 77.4;" xml:space="preserve">
<style type="text/css">
	.st0{fill:none;stroke:#292929;stroke-width:2.3377;stroke-miterlimit:10;}
	.st1{fill:#F16439;}
	.st2{fill:none;stroke:#292929;stroke-width:2.3377;stroke-linecap:round;stroke-miterlimit:10;}
</style>
<path class="st0" d="M17.1,55.7h36.1"/>
<path class="st1" d="M26.2,7.4c-2.5,0-4.5-2-4.5-4.5c0,2.5-2,4.5-4.5,4.5c-2.5,0-4.5-2-4.5-4.5c0,2.5-2,4.5-4.5,4.5
	c-2.5,0-4.5-2-4.5-4.5v38.7C18.4,35.1,29,20.9,30.5,4.1C30,6,28.2,7.4,26.2,7.4z"/>
<path class="st1" d="M3.6,24.7V57h13.5V45.4C17.1,36.1,11.6,28.2,3.6,24.7z"/>
<path class="st2" d="M3.6,34.8h11.9"/>
<path class="st1" d="M62.3,7.4c-2.5,0-4.5-2-4.5-4.5c0,2.5-2,4.5-4.5,4.5c-2.5,0-4.5-2-4.5-4.5c0,2.5-2,4.5-4.5,4.5
	c-2.1,0-3.8-1.4-4.3-3.3c1.5,16.8,12.1,31,26.9,37.4V3C66.7,5.4,64.7,7.4,62.3,7.4z"/>
<path class="st1" d="M66.8,24.7V57H53.2V45.4C53.2,36.1,58.8,28.2,66.8,24.7z"/>
<path class="st2" d="M54.9,34.8h11.9"/>
<path class="st0" d="M0,76.3h70.4"/>
<path class="st0" d="M29.3,64.9v-0.5c0-0.8,0.3-1.7,1-2.3c0.6-0.6,1.5-1,2.3-1h5.2c0.8,0,1.7,0.3,2.3,1c0.6,0.6,1,1.5,1,2.3v0.5"/>
<path class="st0" d="M46.5,64.9v-0.5c0-0.8,0.3-1.7,1-2.3c0.6-0.6,1.5-1,2.3-1H55c0.8,0,1.7,0.3,2.3,1c0.6,0.6,1,1.5,1,2.3v0.5"/>
<path class="st0" d="M12.2,64.9v-0.5c0-0.8,0.3-1.7,1-2.3c0.6-0.6,1.5-1,2.3-1h5.2c0.8,0,1.7,0.3,2.3,1c0.6,0.6,1,1.5,1,2.3v0.5"/>
<path class="st0" d="M3.6,76.3v-4.3c0-0.8,0.3-1.7,1-2.3s1.5-1,2.3-1h5.2c0.8,0,1.7,0.3,2.3,1c0.6,0.6,1,1.5,1,2.3v4.3"/>
<path class="st0" d="M20.8,76.3v-4.3c0-0.8,0.3-1.7,1-2.3c0.6-0.6,1.5-1,2.3-1h5.2c0.8,0,1.7,0.3,2.3,1c0.6,0.6,1,1.5,1,2.3v4.3"/>
<path class="st0" d="M37.9,76.3v-4.3c0-0.8,0.3-1.7,1-2.3c0.6-0.6,1.5-1,2.3-1h5.2c0.8,0,1.7,0.3,2.3,1c0.6,0.6,1,1.5,1,2.3v4.3"/>
<path class="st0" d="M55.1,76.3v-4.3c0-0.8,0.3-1.7,1-2.3c0.6-0.6,1.5-1,2.3-1h5.2c0.8,0,1.7,0.3,2.3,1c0.6,0.6,1,1.5,1,2.3v4.3"/>
<path class="st0" d="M42,34.5h-2.7"/>
<path class="st0" d="M36.6,34.5h-2.7"/>
<path class="st0" d="M31.1,34.5h-2.7"/>
<path class="st0" d="M12.6,1.3v1.6c0,2.5-2,4.5-4.5,4.5c-2.5,0-4.5-2-4.5-4.5V1.3"/>
<path class="st0" d="M21.7,1.3v1.6c0,2.5-2,4.5-4.5,4.5c-2.5,0-4.5-2-4.5-4.5V1.3"/>
<path class="st0" d="M30.7,1.3v1.6c0,2.5-2,4.5-4.5,4.5c-2.5,0-4.5-2-4.5-4.5V1.3"/>
<path class="st0" d="M39.7,1.3v1.6c0,2.5-2,4.5-4.5,4.5c-2.5,0-4.5-2-4.5-4.5V1.3"/>
<path class="st0" d="M48.7,1.3v1.6c0,2.5-2,4.5-4.5,4.5c-2.5,0-4.5-2-4.5-4.5V1.3"/>
<path class="st0" d="M57.8,1.3v1.6c0,2.5-2,4.5-4.5,4.5c-2.5,0-4.5-2-4.5-4.5V1.3"/>
<path class="st0" d="M66.8,1.3v1.6c0,2.5-2,4.5-4.5,4.5c-2.5,0-4.5-2-4.5-4.5V1.3"/>
<path class="st0" d="M0,1.3h70.4"/>
</svg>
