<svg width="19" height="18" viewBox="0 0 19 18" fill="none" xmlns="http://www.w3.org/2000/svg">
<g clip-path="url(#clip0)">
<path d="M9.99359 11.3067V4.44238C9.79898 4.46038 9.60662 4.49075 9.41088 4.49975H3.80647C3.49599 4.49975 3.244 4.75174 3.244 5.06222V5.62469H1.55661C1.24613 5.62469 0.994141 5.87667 0.994141 6.18715V9.56194C0.994141 9.87242 1.24613 10.1244 1.55661 10.1244H3.244V10.6869C3.244 10.9974 3.49599 11.2493 3.80647 11.2493H4.14732L6.40844 17.2767C6.5468 17.6378 6.85616 17.8999 7.23639 17.9764C7.31176 17.9922 7.38713 18.0001 7.46137 18.0001C7.76173 18.0001 8.04746 17.8808 8.2522 17.6671L9.60324 16.3273C9.9486 15.9819 10.0307 15.4431 9.81023 15.0257L7.9226 11.2493H9.4165C9.60999 11.2583 9.80123 11.2887 9.99359 11.3067Z" fill="#BEA479"/>
<path d="M18.9004 0.272233C18.8892 0.253109 18.8791 0.23736 18.8644 0.219361C18.8026 0.140616 18.7249 0.0764952 18.6293 0.0393725C18.6259 0.0382476 18.6237 0.0337479 18.6203 0.032623C18.6091 0.0292482 18.5989 0.0348728 18.5877 0.031498C18.5371 0.0168739 18.4865 0 18.4302 0C18.392 0 18.3582 0.0146241 18.3211 0.0224986C18.2997 0.0269983 18.2795 0.0281232 18.2581 0.0348728C18.1613 0.0663709 18.0781 0.120367 18.0117 0.194613C18.0072 0.199113 18.0005 0.200237 17.996 0.204737C16.2422 2.33423 13.7966 3.75839 11.1182 4.28036V11.4698C13.7966 11.9918 16.2422 13.4148 17.996 15.5443C18.0005 15.5499 18.0084 15.5522 18.014 15.5589C18.0534 15.6028 18.1017 15.6376 18.1535 15.6669C18.1703 15.677 18.1838 15.6916 18.2007 15.6995C18.2716 15.7299 18.3481 15.749 18.4302 15.749C18.4943 15.749 18.5573 15.7378 18.6203 15.7164C18.6237 15.7153 18.6259 15.7108 18.6293 15.7096C18.7249 15.6725 18.8026 15.6095 18.8644 15.5297C18.8779 15.5117 18.8881 15.4959 18.9004 15.4768C18.9544 15.3902 18.9927 15.2945 18.9927 15.1866V0.562465C18.9927 0.454472 18.9544 0.358853 18.9004 0.272233Z" fill="#BEA479"/>
</g>
<defs>
<clipPath id="clip0">
<rect width="18" height="18" fill="white" transform="translate(0.993164)"/>
</clipPath>
</defs>
</svg>
