<svg width="141" height="55" viewBox="0 0 141 55" fill="none" xmlns="http://www.w3.org/2000/svg">
<rect width="141" height="55" rx="3" fill="#414650"/>
<path d="M46.7555 19.6238V9.56598H50.0471C51.0529 9.56598 51.7844 9.74885 52.333 10.206C52.8816 10.6632 53.1559 11.3032 53.1559 12.1261C53.1559 12.6748 52.9731 13.1319 52.6073 13.5891C52.2416 14.0463 51.7844 14.2291 51.1444 14.2291C51.7844 14.3206 52.333 14.5949 52.6987 14.9606C53.0645 15.4178 53.2474 15.875 53.2474 16.515C53.2474 17.5208 52.9731 18.2523 52.4244 18.7094C51.8758 19.2581 51.0529 19.5324 49.9557 19.5324H46.7555V19.6238ZM49.2242 13.4977H49.4985C49.8643 13.4977 50.1386 13.4062 50.3214 13.2234C50.5043 13.0405 50.5958 12.7662 50.5958 12.4005C50.5958 11.7604 50.23 11.3947 49.59 11.3947H49.3157V13.4977H49.2242ZM49.2242 17.7037H49.59C49.9557 17.7037 50.23 17.6122 50.4129 17.4294C50.5958 17.2465 50.6872 16.8808 50.6872 16.4236C50.6872 16.0578 50.5958 15.7835 50.4129 15.6007C50.23 15.4178 49.9557 15.3264 49.59 15.3264H49.2242V17.7037Z" fill="white"/>
<path d="M54.2531 19.6238V9.56598H56.7218V12.9491H57.4533C58.5505 12.9491 59.282 13.2234 59.9221 13.772C60.5621 14.3206 60.745 15.1435 60.745 16.1493C60.745 18.4351 59.6478 19.6238 57.3619 19.6238H54.2531ZM56.7218 17.5208H57.179C57.5448 17.5208 57.8191 17.4294 58.0019 17.2465C58.1848 17.0636 58.1848 16.7893 58.1848 16.3321C58.1848 15.875 58.0934 15.5092 58.0019 15.3264C57.8191 15.1435 57.6362 15.0521 57.179 15.0521H56.7218V17.5208Z" fill="white"/>
<path d="M61.5679 19.6237V9.47449H63.9452V19.6237H61.5679Z" fill="white"/>
<path d="M65.3167 19.6238V9.56598H71.0771V11.7604H67.7854V13.0405H68.6998C69.7056 13.0405 70.437 13.3148 71.0771 13.9548C71.7171 14.5949 71.9914 15.4178 71.9914 16.4236C71.9914 18.618 70.8942 19.7152 68.6998 19.7152H65.3167V19.6238ZM67.7854 17.6122H68.1512C68.5169 17.6122 68.7912 17.5208 68.9741 17.3379C69.157 17.1551 69.2484 16.7893 69.2484 16.3321C69.2484 15.4178 68.8827 14.9606 68.1512 14.9606H67.7854V17.6122Z" fill="white"/>
<path d="M72.8143 19.6238V9.56598H76.0145C77.1118 9.56598 77.9347 9.84028 78.4833 10.4803C79.0319 11.1204 79.3062 11.9433 79.3062 12.9491C79.3062 14.0463 79.0319 14.8692 78.3918 15.5092C77.8432 16.1493 77.0203 16.4236 75.9231 16.4236H75.1916V19.6238H72.8143ZM75.2831 14.3206H75.7402C76.3803 14.3206 76.746 13.8634 76.746 12.8576C76.746 12.4005 76.6546 12.0347 76.5632 11.8518C76.4717 11.669 76.1974 11.5775 75.7402 11.5775H75.2831V14.3206Z" fill="white"/>
<path d="M84.7923 19.6238L84.518 18.1608H82.3235L82.0492 19.6238H79.5805L81.7749 9.56598H85.0666L87.261 19.6238H84.7923ZM82.6893 15.7835H84.0608L83.3293 11.669L82.6893 15.7835Z" fill="white"/>
<path d="M87.9011 14.5034C87.9011 12.7661 88.1754 11.4861 88.8154 10.5717C89.4555 9.65737 90.3698 9.2002 91.6499 9.2002C92.7471 9.2002 93.57 9.56593 94.2101 10.2974C94.7587 11.0289 95.033 11.9432 95.033 13.1319C95.033 13.2233 95.033 13.4062 95.033 13.6805L92.4728 13.9548L92.3814 13.8634C92.3814 13.4976 92.3814 13.2233 92.3814 13.1319C92.3814 12.0347 92.1071 11.4861 91.6499 11.4861C91.1927 11.4861 90.9184 11.6689 90.7355 12.1261C90.5527 12.5833 90.4612 13.4062 90.4612 14.7777C90.4612 15.6921 90.5527 16.4235 90.7355 16.7893C90.9184 17.155 91.1927 17.3379 91.6499 17.3379C91.9242 17.3379 92.1985 17.2464 92.3814 16.9721C92.5642 16.6978 92.6557 16.3321 92.8385 15.8749L95.033 16.4235C95.033 16.7893 94.9415 17.155 94.7587 17.6122C94.5758 17.9779 94.3929 18.3437 94.1186 18.7094C93.8443 19.0751 93.4786 19.3494 93.1128 19.5323C92.7471 19.7152 92.1985 19.8066 91.6499 19.8066C90.3698 19.8066 89.4555 19.3494 88.8154 18.4351C88.1754 17.6122 87.9011 16.2407 87.9011 14.5034Z" fill="white"/>
<path d="M96.0388 19.6238V9.56598H98.5075V12.9491H99.239C100.336 12.9491 101.068 13.2234 101.708 13.772C102.348 14.3206 102.531 15.1435 102.531 16.1493C102.531 18.4351 101.433 19.6238 99.1475 19.6238H96.0388ZM98.5075 17.5208H98.9647C99.3304 17.5208 99.6047 17.4294 99.7876 17.2465C99.9705 17.0636 99.9705 16.7893 99.9705 16.3321C99.9705 15.875 99.879 15.5092 99.7876 15.3264C99.6047 15.1435 99.4218 15.0521 98.9647 15.0521H98.5075V17.5208Z" fill="white"/>
<path d="M103.262 19.6237V9.47449H105.639V19.6237H103.262Z" fill="white"/>
<path d="M107.102 19.6238V9.56598H110.394C111.4 9.56598 112.131 9.74885 112.68 10.206C113.229 10.6632 113.503 11.3032 113.503 12.1261C113.503 12.6748 113.32 13.1319 112.954 13.5891C112.588 14.0463 112.04 14.2291 111.491 14.2291C112.131 14.3206 112.68 14.5949 113.046 14.9606C113.411 15.4178 113.594 15.875 113.594 16.515C113.594 17.5208 113.32 18.2523 112.771 18.7094C112.223 19.2581 111.4 19.5324 110.303 19.5324H107.102V19.6238ZM109.48 13.4977H109.754C110.12 13.4977 110.394 13.4062 110.577 13.2234C110.76 13.0405 110.851 12.7662 110.851 12.4005C110.851 11.7604 110.485 11.3947 109.845 11.3947H109.571V13.4977H109.48ZM109.48 17.7037H109.845C110.211 17.7037 110.485 17.6122 110.668 17.4294C110.851 17.2465 110.943 16.8808 110.943 16.4236C110.943 16.0578 110.851 15.7835 110.668 15.6007C110.485 15.4178 110.211 15.3264 109.845 15.3264H109.48V17.7037Z" fill="white"/>
<path d="M119.08 19.6238L118.806 18.1608H116.612L116.337 19.6238H113.869L116.063 9.56598H119.355L121.549 19.6238H119.08ZM117.069 15.7835H118.44L117.709 11.669L117.069 15.7835Z" fill="white"/>
<path d="M122.555 19.6238V9.56595H124.749V14.1377L124.475 15.6921L125.024 14.2291L126.852 9.65739H129.412V19.7152H127.218V15.1435L127.492 13.5891L126.944 15.052L125.115 19.6238H122.555ZM123.835 6.36574L125.481 6C125.481 6.64004 125.664 7.00578 126.121 7.00578C126.486 7.00578 126.761 6.64004 126.761 6L128.407 6.36574C128.315 7.09722 128.041 7.55439 127.767 7.92013C127.401 8.28587 126.852 8.3773 126.212 8.3773C124.658 8.3773 123.926 7.73726 123.835 6.36574Z" fill="white"/>
<path d="M56.539 30.3216L57.5447 33.979H54.7103L53.7045 30.0473H53.1559V33.979H50.5957V30.0473H50.1385L49.1328 33.979H46.3897L47.3955 30.3216L47.8527 28.9501L47.3955 27.5786L46.3897 23.9212H49.1328L50.1385 27.8529H50.5957V23.9212H53.1559V27.8529H53.7045L54.7103 23.9212H57.4533L56.4475 27.5786L55.9904 28.9501L56.539 30.3216Z" fill="white"/>
<path d="M58.7334 33.979V23.9212H62.0251C63.0308 23.9212 63.7623 24.1041 64.3109 24.5612C64.8595 25.0184 65.1338 25.6585 65.1338 26.4814C65.1338 27.03 64.951 27.4872 64.5852 27.9443C64.2195 28.4015 63.7623 28.5844 63.2137 28.6758C63.8537 28.7672 64.4024 29.0415 64.7681 29.4073C65.1338 29.8645 65.3167 30.3216 65.3167 30.9617C65.3167 31.9675 65.0424 32.6989 64.4938 33.1561C63.9452 33.7047 63.1223 33.979 62.0251 33.979H58.7334ZM61.2021 27.9443H61.4764C61.8422 27.9443 62.1165 27.8529 62.2994 27.67C62.4822 27.4872 62.5737 27.2129 62.5737 26.8471C62.5737 26.2071 62.2079 25.8413 61.5679 25.8413H61.2936V27.9443H61.2021ZM61.2021 32.1503H61.5679C61.9336 32.1503 62.2079 32.0589 62.3908 31.876C62.5737 31.6932 62.6651 31.3274 62.6651 30.8702C62.6651 30.5045 62.5737 30.2302 62.3908 30.0473C62.2079 29.8645 61.9336 29.773 61.5679 29.773H61.2021V32.1503Z" fill="white"/>
<path d="M70.8028 33.979L70.5285 32.5161H68.334L68.0597 33.979H65.591L67.7854 23.9212H71.0771L73.2715 33.979H70.8028ZM68.7912 30.1388H70.1627L69.4313 26.0242L68.7912 30.1388Z" fill="white"/>
<path d="M78.0261 33.979V30.7788C77.6604 30.9617 77.3861 31.1445 77.1118 31.1445C76.8375 31.236 76.5632 31.236 76.106 31.236C75.3745 31.236 74.8259 30.9617 74.5516 30.3216C74.1859 29.773 74.003 29.0415 74.003 28.2186V23.8298H76.5632V28.0358C76.5632 28.6758 76.746 29.0416 77.2032 29.0416C77.4775 29.0416 77.7518 28.8587 78.0261 28.5844V23.8298H80.5863V33.8876H78.0261V33.979Z" fill="white"/>
<path d="M87.9925 30.3216L88.9983 33.979H86.1638L85.158 30.0473H84.518V33.979H81.9578V23.9212H84.518V27.8529H85.158L86.1638 23.9212H88.9069L87.9011 27.5786L87.4439 28.9501L87.9925 30.3216Z" fill="white"/>
<path d="M89.5469 33.7047L89.9126 31.7846C90.1869 31.9675 90.4612 32.0589 90.7355 32.0589C91.1927 32.0589 91.467 31.876 91.5585 31.6017L91.6499 31.4188L89.1812 24.0126H92.0156L92.6557 28.4015L93.2043 24.0126H95.9473L93.9358 31.5103C93.6614 32.6075 93.2957 33.339 92.93 33.7047C92.4728 34.0704 91.9242 34.2533 91.2842 34.2533C90.827 34.2533 90.1869 34.0704 89.5469 33.7047Z" fill="white"/>
<path d="M46.7555 48.4257V38.3679H53.5217V48.4257H50.9615V40.5624H49.3157V48.4257H46.7555Z" fill="white"/>
<path d="M54.9846 48.4257V38.3679H58.1848C59.282 38.3679 60.105 38.6422 60.6536 39.2823C61.2022 39.9223 61.4765 40.7452 61.4765 41.751C61.4765 42.8482 61.2022 43.6711 60.5621 44.3112C60.0135 44.9512 59.1906 45.2255 58.0934 45.2255H57.3619V48.4257H54.9846ZM57.4534 43.214H57.9105C58.5506 43.214 58.9163 42.7568 58.9163 41.751C58.9163 41.2938 58.8249 40.9281 58.7334 40.7452C58.642 40.5624 58.3677 40.4709 57.9105 40.4709H57.4534V43.214Z" fill="white"/>
<path d="M66.8711 48.4257L66.5968 46.9628H64.4023L64.128 48.4257H61.6593L63.8537 38.3679H67.1454L69.3398 48.4257H66.8711ZM64.8595 44.5855H66.231L65.4996 40.4709L64.8595 44.5855Z" fill="white"/>
<path d="M70.3456 48.4257V38.3679H73.6373C74.6431 38.3679 75.3745 38.5508 75.9232 39.008C76.4718 39.4651 76.7461 40.1052 76.7461 40.9281C76.7461 41.4767 76.5632 41.9339 76.1975 42.391C75.8317 42.8482 75.3746 43.0311 74.8259 43.1225C75.466 43.214 76.0146 43.4883 76.3803 43.854C76.7461 44.3112 76.9289 44.7683 76.9289 45.4084C76.9289 46.4142 76.6546 47.1456 76.106 47.6028C75.5574 48.1514 74.7345 48.4257 73.6373 48.4257H70.3456ZM72.7229 42.2996H72.9972C73.363 42.2996 73.6373 42.2082 73.8202 42.0253C74.003 41.8424 74.0945 41.5681 74.0945 41.2024C74.0945 40.5624 73.7287 40.1966 73.0887 40.1966H72.8144V42.2996H72.7229ZM72.7229 46.597H73.0887C73.4544 46.597 73.7287 46.5056 73.9116 46.3227C74.0945 46.1399 74.1859 45.7741 74.1859 45.317C74.1859 44.9512 74.0945 44.6769 73.9116 44.494C73.7287 44.3112 73.4544 44.2197 73.0887 44.2197H72.7229V46.597Z" fill="white"/>
<path d="M77.8433 48.4257V38.3679H80.0377V42.9397L79.7634 44.494L80.312 43.0311L82.1407 38.4594H84.7009V48.5172H82.5064V43.9454L82.7807 42.391L82.2321 43.854L80.4034 48.4257H77.8433Z" fill="white"/>
<path d="M94.0272 38.3679V48.4257H91.467V40.5623H89.8212V41.6595C89.8212 43.3968 89.6383 44.7683 89.4554 45.7741C89.1811 46.7799 88.8154 47.5113 88.2668 47.8771C87.7182 48.3342 87.0781 48.5171 86.1638 48.5171H85.5237V46.2312H85.7066C86.0723 46.2312 86.3467 46.1398 86.5295 45.9569C86.7124 45.7741 86.8953 45.3169 86.9867 44.5854C87.0781 43.8539 87.1696 42.8482 87.1696 41.5681V38.2764H94.0272V38.3679Z" fill="white"/>
<path d="M95.3987 48.4257V38.3679H97.8674V41.751H98.5989C99.6961 41.751 100.428 42.0253 101.068 42.5739C101.708 43.1225 101.891 43.9454 101.891 44.9512C101.891 47.2371 100.793 48.4257 98.5075 48.4257H95.3987ZM97.8674 46.3227H98.3246C98.6904 46.3227 98.9647 46.2313 99.1475 46.0484C99.3304 45.8656 99.3304 45.5913 99.3304 45.1341C99.3304 44.6769 99.239 44.3112 99.1475 44.1283C98.9647 43.9454 98.7818 43.854 98.3246 43.854H97.8674V46.3227Z" fill="white"/>
<path d="M102.805 48.4257V38.3679H105.365V42.2082H107.102V38.3679H109.663V48.4257H107.102V44.5855H105.365V48.4257H102.805Z" fill="white"/>
<path d="M110.76 43.3968C110.76 41.6595 111.034 40.3794 111.674 39.4651C112.314 38.5507 113.229 38.0936 114.417 38.0936C115.606 38.0936 116.52 38.5507 117.16 39.4651C117.8 40.3794 118.075 41.6595 118.075 43.3968C118.075 45.134 117.8 46.4141 117.16 47.3285C116.52 48.2428 115.606 48.7 114.417 48.7C113.229 48.7 112.314 48.2428 111.674 47.3285C111.126 46.4141 110.76 45.134 110.76 43.3968ZM115.514 43.3968C115.514 42.2996 115.423 41.5681 115.24 41.1109C115.057 40.6537 114.783 40.4709 114.417 40.4709C114.051 40.4709 113.777 40.6537 113.594 41.1109C113.411 41.5681 113.32 42.2996 113.32 43.3968C113.32 44.494 113.411 45.2255 113.594 45.6826C113.777 46.1398 114.051 46.3227 114.417 46.3227C114.783 46.3227 115.057 46.1398 115.24 45.6826C115.423 45.2255 115.514 44.494 115.514 43.3968Z" fill="white"/>
<path d="M13.3876 27.5899C13.3876 26.744 13.556 26.2365 13.8929 25.5598C15.5772 22.853 17.2615 20.1462 18.9458 17.4394C19.2827 16.9319 19.788 16.2552 20.1249 15.7477C20.6302 14.9018 21.3039 14.7326 22.1461 15.2401C23.8304 16.5935 25.6831 17.7777 27.3675 19.1311C28.0412 19.6387 28.2096 20.3154 27.7043 21.1612C26.1884 23.1913 24.6725 25.2214 23.1566 27.2515C22.8198 27.759 22.6514 28.4357 22.8198 28.9432C24.1672 35.0335 25.3463 41.293 26.6937 47.3832C26.6937 47.5524 26.6937 47.5524 26.6937 47.7216C26.6937 47.8908 26.5253 47.8908 26.5253 48.0599C26.3569 48.0599 26.1884 48.0599 26.02 47.8908C26.02 47.7216 25.8516 47.7216 25.8516 47.5524C23.8304 42.9847 21.8092 38.417 19.9564 33.8493V33.6801C19.9564 33.511 19.788 33.3418 19.6196 33.3418C19.4511 33.3418 19.4511 33.511 19.2827 33.6801C19.2827 33.8493 19.2827 34.1877 19.1143 34.3568C18.7774 36.8944 18.4405 39.4321 18.2721 41.9697C18.1037 43.8306 17.9352 45.5223 17.5984 47.3832C17.5984 47.5524 17.5984 47.5524 17.5984 47.7216C17.5984 47.8908 17.4299 47.8908 17.2615 47.8908C17.0931 47.8908 16.9247 47.8908 16.9247 47.7216C16.9247 47.5524 16.9247 47.5524 16.9247 47.3832C16.2509 43.8306 15.7456 40.1087 15.0719 36.5561C14.5666 33.6801 14.0613 30.9733 13.556 28.0974C13.3876 28.0974 13.3876 27.759 13.3876 27.5899Z" fill="#37E050"/>
<path d="M36.6312 48.0599C34.1048 48.0599 31.7467 48.0599 29.2202 48.0599C28.8834 46.199 28.7149 44.1689 28.5465 42.308C28.3781 40.4471 28.0412 38.417 27.8728 36.5561C27.7043 34.6951 27.3675 32.6651 27.199 30.8041C31.2414 30.8041 35.1154 30.8041 39.1577 30.8041C38.1471 36.5561 37.4734 42.308 36.6312 48.0599ZM34.6101 34.1876C34.6101 33.6801 34.6101 33.3418 34.6101 33.0034C34.6101 32.6651 34.6101 32.1575 34.6101 31.8192C34.1048 31.8192 31.5783 31.8192 31.2414 31.8192C31.2414 32.6651 31.2414 33.5109 31.4098 34.1876C32.4204 34.1876 33.431 34.1876 34.6101 34.1876ZM34.4416 34.8643C33.431 34.8643 32.4204 34.8643 31.4098 34.8643C31.4098 35.7102 31.4098 36.5561 31.5783 37.4019C32.5889 37.4019 33.431 37.4019 34.4416 37.4019C34.4416 36.5561 34.4416 35.7102 34.4416 34.8643ZM31.5783 38.2478C31.5783 39.0937 31.5783 39.9395 31.7467 40.7854C32.5889 40.7854 33.431 40.7854 34.2732 40.7854C34.2732 39.9395 34.2732 39.0937 34.4416 38.2478C33.431 38.2478 32.5889 38.2478 31.5783 38.2478ZM28.2096 34.1876C29.0518 34.1876 29.894 34.1876 30.7361 34.1876C30.7361 33.3418 30.7361 32.4959 30.5677 31.65C29.7255 31.65 28.7149 31.65 27.8728 31.65C28.0412 32.4959 28.0412 33.3418 28.2096 34.1876ZM37.9787 31.65C37.1365 31.65 36.2944 31.65 35.2838 31.65C35.2838 32.4959 35.1154 33.3418 35.2838 34.1876C36.1259 34.1876 36.9681 34.1876 37.6418 34.1876C37.8103 33.3418 37.9787 32.4959 37.9787 31.65ZM34.1048 43.9997C34.1048 43.1539 34.1048 42.308 34.2732 41.4621C33.431 41.4621 32.5889 41.4621 31.7467 41.4621C31.7467 42.308 31.7467 43.1539 31.9151 43.9997C32.5889 43.9997 33.2626 43.9997 34.1048 43.9997ZM28.3781 34.8643C28.5465 35.7102 28.5465 36.5561 28.7149 37.4019C29.3887 37.4019 30.2308 37.4019 30.9045 37.4019C30.9045 36.5561 30.9045 35.7102 30.7361 34.8643C29.894 34.8643 29.0518 34.8643 28.3781 34.8643ZM35.2838 34.8643C35.2838 35.7102 35.2838 36.5561 35.1154 37.4019C35.7891 37.4019 36.6312 37.4019 37.305 37.4019C37.4734 36.5561 37.4734 35.7102 37.6418 34.8643C36.7997 34.8643 36.1259 34.8643 35.2838 34.8643ZM33.9363 47.3832C33.9363 46.5373 33.9363 45.6915 34.1048 44.8456C33.2626 44.8456 32.5889 44.8456 31.9151 44.8456C31.9151 45.6915 31.9151 46.5373 32.0836 47.3832C32.5889 47.3832 33.2626 47.3832 33.9363 47.3832ZM34.9469 40.7854C35.6207 40.7854 36.1259 40.7854 36.7997 40.7854C36.9681 39.9395 36.9681 39.0937 37.1365 38.2478C36.4628 38.2478 35.7891 38.2478 35.1154 38.2478C35.1154 39.0937 35.1154 39.9395 34.9469 40.7854ZM28.7149 38.2478C28.8834 39.0937 28.8834 39.9395 29.0518 40.7854C29.7255 40.7854 30.2308 40.7854 30.9045 40.7854C30.9045 39.9395 30.9045 39.0937 30.7361 38.2478C30.0624 38.2478 29.3887 38.2478 28.7149 38.2478ZM30.9045 41.6313C30.2308 41.6313 29.7255 41.6313 29.0518 41.6313C29.2202 42.4772 29.2202 43.323 29.3887 44.1689C29.894 44.1689 30.3992 44.1689 30.9045 44.1689C31.073 43.1539 31.073 42.308 30.9045 41.6313ZM34.9469 41.6313C34.9469 42.4772 34.9469 43.323 34.7785 44.1689C35.2838 44.1689 35.7891 44.1689 36.2944 44.1689C36.4628 43.323 36.4628 42.4772 36.6312 41.6313C36.1259 41.6313 35.6207 41.6313 34.9469 41.6313ZM35.9575 47.3832C36.1259 46.5373 36.1259 45.6915 36.2944 44.8456C35.7891 44.8456 35.2838 44.8456 34.7785 44.8456C34.7785 45.6915 34.7785 46.5373 34.6101 47.3832C35.1154 47.3832 35.6207 47.3832 35.9575 47.3832ZM29.894 47.3832C30.3993 47.3832 30.7361 47.3832 31.2414 47.3832C31.2414 46.5373 31.2414 45.6915 31.073 44.8456C30.5677 44.8456 30.0624 44.8456 29.5571 44.8456C29.7255 45.6915 29.7255 46.5373 29.894 47.3832Z" fill="#37E050"/>
<path d="M28.5465 16.5935C26.8622 16.5935 25.5147 15.2401 25.3463 13.7176C25.1778 12.5334 25.3463 11.6875 26.02 10.8416C27.3675 9.14987 29.3886 9.31905 30.7361 10.5033C32.252 12.0258 32.0836 14.5634 30.3992 15.9168C29.8939 16.2552 29.2202 16.5935 28.5465 16.5935Z" fill="#37E050"/>
<path d="M33.431 21.3304C33.431 21.8379 32.9257 22.3454 32.4204 22.3454C31.9151 22.3454 31.4098 21.8379 31.4098 21.3304C31.4098 20.6537 31.9151 20.1462 32.4204 20.1462C32.9257 20.1462 33.431 20.6537 33.431 21.3304Z" fill="white"/>
</svg>
