<svg width="22" height="18" viewBox="0 0 22 18" fill="none" xmlns="http://www.w3.org/2000/svg">
<path d="M5.50001 3.5C5.50001 2.77065 5.78974 2.07118 6.30547 1.55546C6.82119 1.03973 7.52067 0.75 8.25001 0.75H13.75C14.4794 0.75 15.1788 1.03973 15.6946 1.55546C16.2103 2.07118 16.5 2.77065 16.5 3.5V14.5C16.5 15.2293 16.2103 15.9288 15.6946 16.4445C15.1788 16.9603 14.4794 17.25 13.75 17.25H8.25001C7.52067 17.25 6.82119 16.9603 6.30547 16.4445C5.78974 15.9288 5.50001 15.2293 5.50001 14.5V3.5ZM12.375 13.125C12.375 12.7603 12.2301 12.4106 11.9723 12.1527C11.7144 11.8949 11.3647 11.75 11 11.75C10.6353 11.75 10.2856 11.8949 10.0277 12.1527C9.76988 12.4106 9.62501 12.7603 9.62501 13.125C9.62501 13.4897 9.76988 13.8394 10.0277 14.0973C10.2856 14.3551 10.6353 14.5 11 14.5C11.3647 14.5 11.7144 14.3551 11.9723 14.0973C12.2301 13.8394 12.375 13.4897 12.375 13.125ZM2.48464 4.50925C2.56997 4.34806 2.58778 4.15958 2.53414 3.98527C2.48051 3.81095 2.35982 3.66508 2.19864 3.57975C2.03745 3.49442 1.84897 3.47661 1.67465 3.53024C1.50034 3.58388 1.35447 3.70456 1.26914 3.86575C0.433117 5.44783 -0.00262325 7.21062 1.18812e-05 9C1.18812e-05 10.8521 0.459262 12.5998 1.26914 14.1343C1.31139 14.2141 1.36895 14.2848 1.43853 14.3423C1.50811 14.3999 1.58834 14.4432 1.67465 14.4698C1.76097 14.4963 1.85166 14.5056 1.94157 14.4971C2.03147 14.4886 2.11883 14.4625 2.19864 14.4203C2.27845 14.378 2.34915 14.3204 2.40672 14.2509C2.46429 14.1813 2.50759 14.101 2.53414 14.0147C2.5607 13.9284 2.57 13.8377 2.5615 13.7478C2.55301 13.6579 2.52689 13.5706 2.48464 13.4907C1.75347 12.107 1.37249 10.5651 1.37501 9C1.37501 7.3775 1.77651 5.8485 2.48464 4.50925ZM20.7309 3.86575C20.6456 3.70456 20.4997 3.58388 20.3254 3.53024C20.1511 3.47661 19.9626 3.49442 19.8014 3.57975C19.6402 3.66508 19.5195 3.81095 19.4659 3.98527C19.4122 4.15958 19.4301 4.34806 19.5154 4.50925C20.2235 5.8485 20.625 7.37612 20.625 9C20.625 10.6225 20.2235 12.1515 19.5154 13.4907C19.4301 13.6519 19.4122 13.8404 19.4659 14.0147C19.5195 14.189 19.6402 14.3349 19.8014 14.4203C19.9626 14.5056 20.1511 14.5234 20.3254 14.4698C20.4997 14.4161 20.6456 14.2954 20.7309 14.1343C21.5669 12.5522 22.0026 10.7894 22 9C22.0026 7.21062 21.5669 5.44783 20.7309 3.86575ZM4.59251 6.50025C4.63088 6.41527 4.65156 6.32338 4.6533 6.23016C4.65504 6.13694 4.6378 6.04433 4.60263 5.95798C4.56746 5.87164 4.51509 5.79334 4.44871 5.72787C4.38233 5.66239 4.30332 5.6111 4.2165 5.57712C4.12968 5.54314 4.03685 5.52717 3.94366 5.53019C3.85047 5.53321 3.75887 5.55515 3.67443 5.59469C3.58998 5.63422 3.51446 5.69052 3.45246 5.76015C3.39046 5.82979 3.34327 5.9113 3.31376 5.99975C2.9404 6.95593 2.7492 7.97351 2.75001 9C2.75001 10.0574 2.94939 11.0694 3.31376 12.0002C3.34327 12.0887 3.39046 12.1702 3.45246 12.2399C3.51446 12.3095 3.58998 12.3658 3.67443 12.4053C3.75887 12.4448 3.85047 12.4668 3.94366 12.4698C4.03685 12.4728 4.12968 12.4569 4.2165 12.4229C4.30332 12.3889 4.38233 12.3376 4.44871 12.2721C4.51509 12.2067 4.56746 12.1284 4.60263 12.042C4.6378 11.9557 4.65504 11.8631 4.6533 11.7698C4.65156 11.6766 4.63088 11.5847 4.59251 11.4998C4.28215 10.7029 4.12359 9.85511 4.12501 9C4.12501 8.11725 4.29001 7.27438 4.59251 6.50025ZM18.6863 5.99975C18.6137 5.8391 18.4823 5.71245 18.319 5.64596C18.1558 5.57947 17.9732 5.57822 17.8091 5.64246C17.645 5.7067 17.5118 5.83154 17.437 5.99117C17.3623 6.15081 17.3517 6.33305 17.4075 6.50025C17.71 7.27438 17.875 8.11725 17.875 9C17.875 9.88275 17.71 10.7256 17.4075 11.4998C17.3517 11.667 17.3623 11.8492 17.437 12.0088C17.5118 12.1685 17.645 12.2933 17.8091 12.3575C17.9732 12.4218 18.1558 12.4205 18.319 12.354C18.4823 12.2875 18.6137 12.1609 18.6863 12.0002C19.052 11.0694 19.25 10.0574 19.25 9C19.25 7.94263 19.0506 6.93062 18.6863 5.99975Z" fill="#BEA479"/>
</svg>
