<svg width="32" height="32" viewBox="0 0 32 32" fill="none" xmlns="http://www.w3.org/2000/svg">
<path d="M22.764 31.875C21.747 31.875 20.7393 31.6954 19.753 31.3373C15.4095 29.7598 11.3785 27.19 8.09434 23.9059C4.81022 20.6217 2.241 16.5901 0.662928 12.2472C0.155975 10.8512 0.00647337 9.41033 0.218114 7.96453C0.416835 6.60979 0.94163 5.29503 1.73528 4.16177C2.53263 3.02358 3.59575 2.07674 4.80961 1.42397C6.10529 0.728144 7.51787 0.375 9.01043 0.375C9.47432 0.375 9.87545 0.699228 9.97266 1.15327L11.5175 8.3632C11.5876 8.68989 11.4874 9.0295 11.2511 9.26575L8.61114 11.9057C11.1016 16.8571 15.1431 20.8986 20.0945 23.3891L22.7345 20.7491C22.9707 20.5129 23.3103 20.4126 23.637 20.4827L30.8469 22.0276C31.301 22.1248 31.6252 22.5259 31.6252 22.9898C31.6252 24.4823 31.2721 25.8949 30.5762 27.1894C29.9235 28.4032 28.9766 29.4664 27.8384 30.2637C26.7052 31.058 25.3904 31.5821 24.0357 31.7809C23.6112 31.8436 23.1867 31.875 22.764 31.875ZM8.22354 2.38682C6.25541 2.60399 4.50814 3.63574 3.34843 5.29134C2.04351 7.15304 1.73959 9.44355 2.51355 11.5747C5.54666 19.9247 12.0755 26.4536 20.4255 29.4867C22.5567 30.2606 24.8466 29.9567 26.7089 28.6518C28.3645 27.4915 29.3962 25.7448 29.614 23.7761L23.7484 22.5191L20.9915 25.276C20.698 25.5695 20.2526 25.6476 19.8767 25.471C14.0203 22.7203 9.2799 17.9799 6.52857 12.1241C6.352 11.7488 6.43014 11.3028 6.7236 11.0093L9.48047 8.25246L8.22354 2.38682Z" fill="white"/>
<path d="M30.641 17.1088C30.0971 17.1088 29.6566 16.6683 29.6566 16.1244C29.6566 8.52563 23.4747 2.34375 15.876 2.34375C15.3321 2.34375 14.8916 1.90324 14.8916 1.35938C14.8916 0.815508 15.3321 0.375 15.876 0.375C20.083 0.375 24.0377 2.01337 27.0123 4.98803C29.987 7.96269 31.6254 11.9174 31.6254 16.1244C31.6254 16.6683 31.1849 17.1088 30.641 17.1088Z" fill="white"/>
<path d="M26.7035 17.1088C26.1596 17.1088 25.7191 16.6683 25.7191 16.1244C25.7191 10.6968 21.3036 6.28125 15.876 6.28125C15.3321 6.28125 14.8916 5.84074 14.8916 5.29688C14.8916 4.75301 15.3321 4.3125 15.876 4.3125C22.3889 4.3125 27.6879 9.6109 27.6879 16.1244C27.6879 16.6683 27.2474 17.1088 26.7035 17.1088Z" fill="white"/>
<path d="M22.7656 17.1084C22.2218 17.1084 21.7813 16.6679 21.7813 16.124C21.7813 12.8676 19.1321 10.2178 15.875 10.2178C15.3311 10.2178 14.8906 9.77727 14.8906 9.2334C14.8906 8.68953 15.3311 8.24902 15.875 8.24902C20.2173 8.24902 23.7494 11.7817 23.7494 16.1234C23.75 16.6679 23.3095 17.1084 22.7656 17.1084Z" fill="white"/>
</svg>
