<svg width="65" height="62" viewBox="0 0 65 62" fill="none" xmlns="http://www.w3.org/2000/svg">
<path d="M4.17566 55.2199L10.9678 7.3674L57.4194 32.2635L4.17566 55.2199Z" fill="white"/>
<path d="M11.0215 7.08264L4.17563 55.2198L65 33.2244L0 62L11.0215 7.08264Z" fill="#F4971A"/>
<path d="M0 62L8.31541 0L57.4014 32.2635L10.9677 7.36739L0 62Z" fill="#009640"/>
<path d="M8.31535 0L57.4014 32.2635L4.76697 54.9351C4.76697 54.9351 64.5161 33.6338 64.9999 33.2422L8.31535 0Z" fill="#FFE500"/>
<path d="M53.172 25.3943C52.5447 25.4655 52.0788 25.0028 52.1505 24.3622C52.2222 23.7216 52.7777 23.1699 53.405 23.0987C54.0322 23.0275 54.4982 23.4902 54.4265 24.1309C54.3727 24.7537 53.7992 25.3232 53.172 25.3943ZM53.387 23.2945C52.8673 23.3479 52.4014 23.8105 52.3476 24.3444C52.2938 24.8605 52.6702 25.252 53.1899 25.1986C53.7096 25.1452 54.1756 24.6647 54.2293 24.1487C54.301 23.6148 53.9067 23.2233 53.387 23.2945ZM53.405 24.8249L53.1361 24.4334L53.1003 24.8605L52.8315 24.8961L52.9569 23.686L53.3512 23.6504C53.5842 23.6326 53.8171 23.7038 53.7813 23.9885C53.7634 24.1843 53.62 24.3444 53.4229 24.4156L53.7096 24.8249H53.405ZM53.3333 23.8639L53.1899 23.8817L53.1541 24.2198L53.2974 24.202C53.405 24.1842 53.5125 24.1309 53.5125 24.0063C53.5125 23.8817 53.4408 23.8461 53.3333 23.8639Z" fill="#0D0C0B"/>
<path d="M46.559 17.938L45.43 24.8249C45.1433 24.4156 44.8028 24.0597 44.4085 23.7215C43.1899 22.725 41.6128 22.1911 39.8028 22.1911C39.4085 22.1911 38.9784 22.2267 38.5841 22.2623H38.5304C36.8637 22.4936 35.3583 23.1165 34.1039 24.0419L34.2472 23.1343L32.025 23.1165C31.8637 23.1165 31.5949 23.1165 31.3261 23.1521C30.7705 23.2233 30.215 23.3834 29.6773 23.6326L28.9426 23.7215L30.7347 22.9029L19.8924 17.8846L18.5304 25.3943C18.2257 24.8249 17.8673 24.3088 17.4372 23.8639C15.9318 22.2623 13.853 21.4437 11.2544 21.4437C10.6092 21.4437 9.91032 21.4971 9.13971 21.5861L3.33326 22.3335L0.0357666 42.407L8.33326 41.3392C10.8781 41.0011 13.9963 40.2537 16.4515 37.5666L15.9856 40.3249L21.7741 39.5419V39.5775L28.2795 38.7411L29.4085 31.9965C29.6594 30.5373 29.8565 30.0034 30.5913 29.7187C30.5017 30.2525 30.4659 30.7864 30.4838 31.3381C30.5555 33.3134 31.3261 34.9862 32.7419 36.1429C33.9784 37.1573 35.5913 37.7089 37.4193 37.7089C37.8315 37.7089 38.2436 37.6733 38.6558 37.6199H38.7096C40.6451 37.353 42.3655 36.5522 43.7096 35.3777L43.4766 36.7835L50.215 34.5413L53.1003 17.0838L46.559 17.938ZM11.1827 33.7761C10.2867 34.5413 9.33684 34.826 8.06444 35.004L9.21139 28.0281L9.33684 28.0103C9.96408 27.9213 10.3942 27.8857 10.7705 27.8857C11.2006 27.8857 11.5232 27.9569 11.8637 28.0993C12.3655 28.3306 12.6881 28.9891 12.7239 29.8966C12.7598 31.5516 12.2401 32.8507 11.1827 33.7761ZM38.2078 31.6406C38.1182 31.6584 38.0286 31.6584 37.939 31.6584C37.6343 31.6584 37.3655 31.5872 37.2042 31.4449C37.1325 31.3915 36.9175 31.2135 36.9175 30.733C36.8816 29.5229 37.7956 28.4552 38.9963 28.295C39.0859 28.2772 39.1935 28.2772 39.2831 28.2772C39.5877 28.2772 39.8565 28.3484 40.0178 28.4908C40.0895 28.5442 40.2867 28.7221 40.3046 29.2204C40.3404 30.3593 39.3548 31.4982 38.2078 31.6406Z" fill="white"/>
<path d="M19.8746 26.302L21.0037 20.0201L27.2761 22.9208L19.8746 26.302Z" fill="#E5263A"/>
<path d="M16.3979 24.8783C14.3549 22.6894 11.3979 22.7962 9.35486 23.0631L4.62368 23.6682L1.81006 40.7164L8.13622 39.8978C10.8602 39.5419 13.9427 38.7411 16.1649 35.6091C17.4552 33.7939 18.1541 31.4805 18.0825 29.256C18.0108 27.5298 17.4194 25.9816 16.3979 24.8783ZM12.1326 34.8794C10.914 35.9116 9.65952 36.2675 8.04662 36.481L7.95701 36.4988C7.41938 36.57 6.86382 36.6412 6.32619 36.6946L7.95701 26.7468L9.15773 26.5867C10.5556 26.4087 11.4696 26.3375 12.509 26.8002C13.5305 27.2807 14.1577 28.4018 14.1936 29.8611C14.2294 31.3025 13.9068 33.349 12.1326 34.8794Z" fill="white"/>
<path d="M31.9714 27.9748L32.5269 24.5936H32.0968C31.9176 24.5936 31.7205 24.5936 31.5233 24.6292C30.5556 24.7538 29.552 25.2698 28.7635 25.9995L28.8889 25.2342L25.5198 25.6791L23.5305 37.9047L27.0072 37.4598L27.957 31.7652C28.3692 29.3094 28.9785 28.3663 31.6129 28.0282L31.9714 27.9748Z" fill="white"/>
<path d="M43.4767 24.8427C42.3119 23.8817 40.6452 23.4724 38.7814 23.7216H38.7456C34.7491 24.2554 31.828 27.512 31.9714 31.2847C32.0251 32.8329 32.6165 34.132 33.7097 35.0218C34.9104 36.0183 36.6129 36.4276 38.4947 36.1785H38.5305C42.4911 35.6446 45.3764 32.4236 45.2509 28.7043C45.1613 27.0849 44.552 25.7503 43.4767 24.8427ZM38.7814 26.8536C39.6416 26.7468 40.3943 26.9248 40.9319 27.3697C41.4337 27.7968 41.7205 28.4018 41.7384 29.1492C41.8101 31.0356 40.2689 32.8329 38.3871 33.0821C37.5628 33.1888 36.7922 33.0109 36.2545 32.5482C35.7348 32.1211 35.466 31.516 35.4301 30.7686C35.3764 28.8289 36.8459 27.1027 38.7814 26.8536Z" fill="white"/>
<path d="M47.8316 19.2371L45.233 35.093L48.7277 34.6303L51.3441 18.7744L47.8316 19.2371Z" fill="white"/>
<path d="M19.5699 27.9214L17.7599 38.6344L21.1111 38.1717L23.0825 26.3732L19.5699 27.9214Z" fill="white"/>
<path d="M16.3979 24.8783C14.3549 22.6894 11.3979 22.7962 9.35486 23.0631L4.62368 23.6682L1.81006 40.7164L8.13622 39.8978C10.8602 39.5419 13.9427 38.7411 16.1649 35.6091C17.4552 33.7939 18.1541 31.4805 18.0825 29.256C18.0108 27.5298 17.4194 25.9816 16.3979 24.8783ZM12.1326 34.8794C10.914 35.9116 9.65952 36.2675 8.04662 36.481L7.95701 36.4988C7.41938 36.57 6.86382 36.6412 6.32619 36.6946L7.95701 26.7468L9.15773 26.5867C10.5556 26.4087 11.4696 26.3375 12.509 26.8002C13.5305 27.2807 14.1577 28.4018 14.1936 29.8611C14.2294 31.3025 13.9068 33.349 12.1326 34.8794Z" fill="#272726"/>
<path d="M31.9714 27.9748L32.5269 24.5936H32.0968C31.9176 24.5936 31.7205 24.5936 31.5233 24.6292C30.5556 24.7538 29.552 25.2698 28.7635 25.9995L28.8889 25.2342L25.5198 25.6791L23.5305 37.9047L27.0072 37.4598L27.957 31.7652C28.3692 29.3094 28.9785 28.3663 31.6129 28.0282L31.9714 27.9748Z" fill="#0D0C0B"/>
<path d="M43.4767 24.8427C42.3119 23.8817 40.6452 23.4724 38.7814 23.7216H38.7456C34.7491 24.2554 31.828 27.512 31.9714 31.2847C32.0251 32.8329 32.6165 34.132 33.7097 35.0218C34.9104 36.0183 36.6129 36.4276 38.4947 36.1785H38.5305C42.4911 35.6446 45.3764 32.4236 45.2509 28.7043C45.1613 27.0849 44.552 25.7503 43.4767 24.8427ZM38.7814 26.8536C39.6416 26.7468 40.3943 26.9248 40.9319 27.3697C41.4337 27.7968 41.7205 28.4018 41.7384 29.1492C41.8101 31.0356 40.2689 32.8329 38.3871 33.0821C37.5628 33.1888 36.7922 33.0109 36.2545 32.5482C35.7348 32.1211 35.466 31.516 35.4301 30.7686C35.3764 28.8289 36.8459 27.1027 38.7814 26.8536Z" fill="#0D0C0B"/>
<path d="M47.8316 19.2371L45.233 35.093L48.7277 34.6303L51.3441 18.7744L47.8316 19.2371Z" fill="#0D0C0B"/>
<path d="M19.5699 27.9214L17.7599 38.6344L21.1111 38.1717L23.0825 26.3732L19.5699 27.9214Z" fill="#0D0C0B"/>
<path d="M16.3979 24.8783C14.3549 22.6894 11.3979 22.7962 9.35486 23.0631L4.62368 23.6682L1.81006 40.7164L8.13622 39.8978C10.8602 39.5419 13.9427 38.7411 16.1649 35.6091C17.4552 33.7939 18.1541 31.4805 18.0825 29.256C18.0108 27.5298 17.4194 25.9816 16.3979 24.8783ZM12.1326 34.8794C10.914 35.9116 9.65952 36.2675 8.04662 36.481L7.95701 36.4988C7.41938 36.57 6.86382 36.6412 6.32619 36.6946L7.95701 26.7468L9.15773 26.5867C10.5556 26.4087 11.4696 26.3375 12.509 26.8002C13.5305 27.2807 14.1577 28.4018 14.1936 29.8611C14.2294 31.3025 13.9068 33.349 12.1326 34.8794Z" fill="#0D0C0B"/>
</svg>
