<svg width="59" height="59" viewBox="0 0 59 59" fill="none" xmlns="http://www.w3.org/2000/svg">
<g clip-path="url(#clip0)">
<path d="M29.5463 0C13.2449 0 0 13.2449 0 29.5463C0 45.8477 13.2449 59.0926 29.5463 59.0926C45.8477 59.0926 59.0926 45.8477 59.0926 29.5463C59.0926 13.2449 45.7551 0 29.5463 0Z" fill="white"/>
<path d="M44.4584 8.33594C42.2355 14.0785 37.0487 15.2826 29.639 15.2826C28.8054 15.2826 28.0644 15.2826 27.3234 15.2826C26.5825 15.2826 25.9341 15.2826 25.1931 15.2826C24.5448 15.2826 23.989 15.2826 23.3407 15.2826C24.3595 12.6892 26.0267 11.022 28.4349 9.91051C31.7693 8.42856 36.0299 8.42856 39.8274 8.42856C41.4019 8.42856 42.9765 8.42856 44.4584 8.33594Z" fill="#008F3B"/>
<path d="M46.7739 10.1884C43.4395 17.4129 36.0298 18.1538 29.6389 18.1538C28.2495 18.1538 26.8602 18.1538 25.6561 18.1538L24.0816 24.4521C32.3249 17.7834 43.1616 24.3595 41.9576 34.4552C41.2166 41.2166 36.3076 45.6625 31.2134 46.9592C25.6561 48.3485 19.4505 46.3108 16.6718 40.5683C16.394 39.9199 15.8382 38.7158 15.653 38.1601L21.5808 36.6782C21.6734 37.0487 21.8587 37.3265 22.0439 37.6044C26.0266 43.9953 33.9921 40.7535 34.9183 34.1774C35.8445 27.416 26.3971 23.8964 22.1365 31.7692L16.9497 29.5463H16.8571L19.3579 19.4505C19.5431 18.7096 20.0062 16.7645 20.0988 16.394C22.9701 5.92778 32.1397 5.74254 39.5494 5.74254C36.4929 4.44583 33.1585 3.79748 29.6389 3.79748C15.1899 3.61224 3.61218 15.1899 3.61218 29.5463C3.61218 43.81 15.1899 55.3877 29.4536 55.3877C43.7174 55.3877 55.2951 43.81 55.2951 29.5463C55.3877 21.8587 52.0533 14.9121 46.7739 10.1884Z" fill="#E22222"/>
</g>
<defs>
<clipPath id="clip0">
<rect width="59" height="59" fill="white"/>
</clipPath>
</defs>
</svg>
