<svg width="18" height="18" viewBox="0 0 18 18" fill="none" xmlns="http://www.w3.org/2000/svg">
<path d="M12.2838 9.00013C12.2838 10.8147 10.8077 12.2911 8.9931 12.2911C8.1451 12.2911 7.37371 11.9659 6.78953 11.4373L3.36816 16.0234C4.90916 17.2592 6.86414 18.0002 8.9931 18.0002C13.9636 18.0002 17.993 13.9708 17.993 9.00032C17.993 8.71271 17.978 8.42873 17.9516 8.14795L12.2407 8.49415C12.2665 8.65954 12.2838 8.82774 12.2838 9.00013Z" fill="#BEA479"/>
<path d="M12.1486 8.07311L17.6912 6.68633C17.5774 6.25735 17.4328 5.84115 17.2598 5.43994L12.0459 7.77772C12.0846 7.87409 12.119 7.97252 12.1486 8.07311Z" fill="#BEA479"/>
<path d="M8.99328 11.8911C10.5872 11.8911 11.8841 10.5943 11.8841 9.00012C11.8841 7.40593 10.5872 6.10938 8.99328 6.10938C7.39932 6.10938 6.10254 7.40616 6.10254 9.00012C6.10254 10.5941 7.39932 11.8911 8.99328 11.8911ZM8.99328 7.50214C9.82069 7.50214 10.4914 8.17291 10.4914 9.00032C10.4914 9.82769 9.82069 10.4983 8.99328 10.4983C8.16591 10.4983 7.4951 9.82753 7.4951 9.00012C7.4951 8.17275 8.16591 7.50214 8.99328 7.50214Z" fill="#BEA479"/>
<path d="M0.0800781 10.2429C0.331088 12.059 1.12288 13.7022 2.28927 15.0038L6.488 11.1294C6.07719 10.6471 5.8036 10.0456 5.72621 9.38428L0.0800781 10.2429Z" fill="#BEA479"/>
<path d="M8.99387 5.70914C10.2231 5.70914 11.2954 6.38773 11.8604 7.38889L16.5612 4.13073C14.9592 1.64658 12.1697 0 8.99387 0C4.10292 0 0.125979 3.90214 0 8.76286L5.70532 8.95547C5.7295 7.16171 7.19429 5.70914 8.99387 5.70914Z" fill="#BEA479"/>
</svg>
