<svg width="23" height="23" viewBox="0 0 23 23" fill="none" xmlns="http://www.w3.org/2000/svg">
<path d="M16.2099 10.0028C16.2099 11.2307 15.8458 12.431 15.1636 13.452C14.4814 14.4729 13.5118 15.2686 12.3774 15.7385C11.243 16.2084 9.99474 16.3314 8.79046 16.0918C7.58618 15.8523 6.47997 15.261 5.61174 14.3927C4.7435 13.5245 4.15222 12.4183 3.91267 11.214C3.67312 10.0097 3.79607 8.76146 4.26596 7.62705C4.73584 6.49265 5.53157 5.52305 6.55251 4.84088C7.57345 4.15871 8.77375 3.7946 10.0016 3.7946C11.6476 3.79647 13.2256 4.45115 14.3895 5.61501C15.5533 6.77888 16.208 8.35689 16.2099 10.0028ZM21.7612 21.7631C21.606 21.9183 21.3954 22.0056 21.1759 22.0056C20.9563 22.0056 20.7458 21.9183 20.5905 21.7631L16.1182 17.2908C14.2371 18.8701 11.819 19.6622 9.36813 19.502C6.91725 19.3418 4.6228 18.2417 2.96328 16.431C1.30375 14.6204 0.407262 12.239 0.46076 9.78347C0.514257 7.32793 1.51361 4.98784 3.25042 3.25118C4.98723 1.51452 7.32741 0.51537 9.78295 0.462085C12.2385 0.4088 14.6198 1.3055 16.4303 2.96518C18.2408 4.62486 19.3407 6.9194 19.5007 9.3703C19.6607 11.8212 18.8683 14.2392 17.2889 16.1202L21.7612 20.5925C21.9165 20.7477 22.0037 20.9583 22.0037 21.1778C22.0037 21.3973 21.9165 21.6079 21.7612 21.7631ZM10.0016 17.8666C11.5569 17.8666 13.0773 17.4054 14.3705 16.5413C15.6637 15.6773 16.6716 14.4491 17.2668 13.0122C17.862 11.5753 18.0177 9.99413 17.7143 8.4687C17.4109 6.94328 16.6619 5.54208 15.5622 4.44232C14.4624 3.34255 13.0612 2.59359 11.5358 2.29017C10.0104 1.98674 8.42921 2.14247 6.99229 2.73766C5.55537 3.33285 4.32722 4.34077 3.46314 5.63397C2.59905 6.92716 2.13785 8.44754 2.13785 10.0028C2.14021 12.0877 2.96947 14.0865 4.4437 15.5608C5.91794 17.035 7.91675 17.8643 10.0016 17.8666Z" fill="white"/>
</svg>
