<?xml version="1.0" encoding="utf-8"?>
<!-- Generator: Adobe Illustrator 23.0.2, SVG Export Plug-In . SVG Version: 6.00 Build 0)  -->
<svg version="1.1" id="Слой_1" xmlns="http://www.w3.org/2000/svg" xmlns:xlink="http://www.w3.org/1999/xlink" x="0px" y="0px"
	 viewBox="0 0 1440 30" style="enable-background:new 0 0 1440 30;" xml:space="preserve">
<style type="text/css">
	.st0{clip-path:url(#SVGID_2_);}
	.st1{fill:#FFFFFF;}
</style>
<g>
	<defs>
		<rect id="SVGID_1_" width="1440" height="30"/>
	</defs>
	<clipPath id="SVGID_2_">
		<use xlink:href="#SVGID_1_"  style="overflow:visible;"/>
	</clipPath>
	<g class="st0">
		<path class="st1" d="M0,27C0,18.5,0,10,0.1,1.4c0-0.6,0.8-1.2,1.2-1.8c0.1-0.1,0.4,0,0.6,0C480.6,0,959.3,0.3,1438.1,0.5
			c1.6,0,2,0.5,1.9,2.7c-0.1,7.4-0.1,14.9-0.1,22.3c-10,0.4-20,1.3-30,1.2c-27.6-0.2-55.1-0.7-82.7-1.2c-15-0.2-29.9-0.5-44.9-0.8
			c-21.8-0.5-43.6-1.4-65.3-1.5c-14.4,0-28.8,1.5-43.1,1.8c-19.7,0.3-39.4-0.3-59.1,0.1c-32.6,0.6-65.3,2.3-97.9,2.5
			c-34.4,0.2-68.8-0.7-103.2-1.1c-12.9-0.2-25.7-0.5-38.6-0.8c-23.4-0.6-46.8-1.6-70.1-1.6c-14.6,0-29.2,1.9-43.8,2.1
			c-22.9,0.3-45.8-0.1-68.7-0.1c-11.5,0-23,0-34.5,0.4c-17,0.6-34,2.1-51.1,2.1c-31.3,0.1-62.5-0.7-93.8-1.1c-13-0.2-26-0.5-39-0.8
			c-22.1-0.6-44.1-1.5-66.2-1.6c-8.7-0.1-17.3,1.8-26,2.1c-11.6,0.4-23.3,0-34.9,0.1c-37.2,0.3-74.3,0.4-111.5,1.9
			c-41.3,1.7-82.7-0.3-124-0.7c-12.7-0.1-25.5-0.6-38.2-0.8C48.8,27.3,24.4,27.2,0,27z"/>
	</g>
</g>
</svg>
