<svg width="1440" height="30" viewBox="0 0 1440 30" fill="none" xmlns="http://www.w3.org/2000/svg">
<g clip-path="url(#clip0)">
<path d="M1439.99 2.56595C1439.99 11.1016 1440.02 19.6252 1439.94 28.1609C1439.93 28.7697 1439.18 29.3905 1438.73 29.9277C1438.61 30.0709 1438.32 29.9515 1438.11 29.9515C959.38 29.9515 480.65 29.9515 1.92029 30.0111C0.345215 30.0111 -0.0372314 29.5216 -0.00732398 27.2773C0.112794 19.84 0.0377213 12.3907 0.0377219 4.95341C10.0509 4.52364 20.0717 3.68799 30.085 3.74768C57.6494 3.91481 85.214 4.44008 112.778 4.86985C127.742 5.09667 142.706 5.34737 157.669 5.68163C179.451 6.15915 201.232 7.09031 223.006 7.12613C237.385 7.15 251.764 5.56226 266.15 5.3235C285.854 4.98924 305.565 5.56227 325.269 5.16832C357.904 4.52367 390.531 2.87624 423.166 2.63749C457.556 2.38679 491.946 3.25826 526.336 3.69997C539.215 3.8671 552.086 4.18943 564.964 4.49981C588.343 5.0609 611.722 6.07562 635.102 6.0995C649.698 6.11144 664.286 4.18944 678.89 3.97456C701.797 3.62836 724.711 4.04619 747.617 4.03425C759.108 4.02231 770.599 3.9865 782.082 3.59255C799.101 3.00759 816.12 1.47954 833.139 1.44373C864.393 1.3721 895.648 2.07644 926.903 2.51815C939.916 2.69722 952.93 2.99567 965.943 3.31799C988.002 3.86714 1010.05 4.76249 1032.11 4.91768C1040.78 4.97737 1049.45 3.06731 1058.14 2.7808C1069.76 2.38685 1081.39 2.76886 1093.03 2.67336C1130.19 2.36298 1167.34 2.26747 1204.51 0.739424C1245.83 -0.955757 1287.21 0.942377 1328.56 1.34827C1341.3 1.47959 1354.04 1.96904 1366.77 2.10036C1391.18 2.29137 1415.59 2.39881 1439.99 2.56595Z" fill="white"/>
</g>
<defs>
<clipPath id="clip0">
<rect width="1440" height="30" fill="white" transform="translate(1440 30) rotate(-180)"/>
</clipPath>
</defs>
</svg>
