<svg width="16" height="18" viewBox="0 0 16 18" fill="none" xmlns="http://www.w3.org/2000/svg">
<path d="M15.4489 3.104H14.0713L14.0818 17.9876H14.5675C15.3456 17.9876 15.9763 17.3569 15.9763 16.5788V3.63135C15.9763 3.34011 15.7402 3.104 15.4489 3.104Z" fill="#BEA479"/>
<path d="M2.92871 9.70703H6.43066V12.8232H2.92871V9.70703Z" fill="#BEA479"/>
<path d="M13.0154 0.526957C13.0152 0.235863 12.7791 0 12.4881 0H0.537109C0.245875 0 0.00976562 0.236109 0.00976562 0.527344V16.2924C0.00976562 17.2355 0.776383 18 1.72209 18L13.0278 17.9876L13.0154 0.526957ZM1.87371 9.17968C1.87371 8.88845 2.10982 8.65234 2.40106 8.65234H6.9577C7.24893 8.65234 7.48504 8.88845 7.48504 9.17968V13.3506C7.48504 13.6418 7.24893 13.8779 6.9577 13.8779H2.40106C2.10982 13.8779 1.87371 13.6418 1.87371 13.3506V9.17968ZM10.6364 15.9915H2.41386C2.12262 15.9915 1.88651 15.7554 1.88651 15.4642C1.88651 15.1729 2.12262 14.9368 2.41386 14.9368H10.6365C10.9277 14.9368 11.1638 15.1729 11.1638 15.4642C11.1638 15.7554 10.9277 15.9915 10.6364 15.9915ZM10.6364 7.55659H2.40106C2.10982 7.55659 1.87371 7.32048 1.87371 7.02925C1.87371 6.73801 2.10982 6.5019 2.40106 6.5019H10.6364C10.9277 6.5019 11.1638 6.73801 11.1638 7.02925C11.1638 7.32048 10.9277 7.55659 10.6364 7.55659ZM10.6364 5.44721H2.40106C2.10982 5.44721 1.87371 5.21111 1.87371 4.91987C1.87371 4.62864 2.10982 4.39253 2.40106 4.39253H10.6364C10.9277 4.39253 11.1638 4.62864 11.1638 4.91987C11.1638 5.21111 10.9277 5.44721 10.6364 5.44721ZM10.6364 3.33784H2.40106C2.10982 3.33784 1.87371 3.10173 1.87371 2.8105C1.87371 2.51926 2.10982 2.28315 2.40106 2.28315H10.6364C10.9277 2.28315 11.1638 2.51926 11.1638 2.8105C11.1638 3.10177 10.9277 3.33784 10.6364 3.33784Z" fill="#BEA479"/>
</svg>
