<svg width="34" height="28" viewBox="0 0 34 28" fill="none" xmlns="http://www.w3.org/2000/svg">
<path d="M33.9461 14.2625C34.0557 13.9976 33.9947 13.6928 33.7918 13.4904L21.0418 0.740349C20.7604 0.468548 20.3119 0.476384 20.0401 0.757748C19.7751 1.03227 19.7751 1.46743 20.0401 1.74189L31.5818 13.2835H0.708356C0.317156 13.2836 0 13.6007 0 13.9919C0 14.3831 0.317156 14.7003 0.708356 14.7003H31.5818L20.0416 26.2404C19.7602 26.5122 19.7524 26.9606 20.0242 27.242C20.296 27.5234 20.7444 27.5312 21.0258 27.2594C21.0317 27.2537 21.0375 27.2479 21.0432 27.242L33.7932 14.492C33.8587 14.4262 33.9107 14.3483 33.9461 14.2625Z" fill="#E8F5FF"/>
</svg>
