<svg width="94" height="75" viewBox="0 0 94 75" fill="none" xmlns="http://www.w3.org/2000/svg">
<path d="M40.0375 8.68077L33.0745 1.73633H1.74121V68.0558C1.74121 69.3891 2.24951 70.7225 3.27306 71.7363C4.28966 72.7502 5.62654 73.2641 6.96343 73.2641C8.30032 73.2641 9.63721 72.7572 10.6538 71.7363C11.6704 70.7225 12.1857 69.3891 12.1857 68.0558V17.7086H92.2597V8.68077H40.0375Z" fill="#BEA479"/>
<path d="M69.6299 17.707V55.9015L76.5928 48.957L83.5558 55.9015V17.707H69.6299Z" fill="#F16439"/>
<path d="M12.1851 68.0543C12.1851 69.3876 11.6768 70.7209 10.6533 71.7348C9.63667 72.7487 8.29978 73.2626 6.96289 73.2626H87.037C88.3739 73.2626 89.7107 72.7557 90.7273 71.7348C91.7439 70.7209 92.2592 69.3876 92.2592 68.0543V17.707H12.1851V68.0543Z" stroke="#242D3C" stroke-width="2.40741" stroke-miterlimit="10"/>
<path d="M6.96343 73.2641C5.62654 73.2641 4.28966 72.7572 3.27306 71.7363C2.25647 70.7225 1.74121 69.3891 1.74121 68.0558V1.73633H33.0745L40.0375 8.68077H92.2597V13.1947" stroke="#242D3C" stroke-width="2.40741" stroke-miterlimit="10"/>
<path d="M20.8887 66.3184H83.5553" stroke="#242D3C" stroke-width="2.40741" stroke-miterlimit="10"/>
<path d="M76.5928 40.2769V36.8047" stroke="white" stroke-width="2.40741" stroke-miterlimit="10"/>
<path d="M76.5928 33.3336V29.8613" stroke="white" stroke-width="2.40741" stroke-miterlimit="10"/>
<path d="M76.5938 26.3892V22.917" stroke="white" stroke-width="2.40741" stroke-miterlimit="10"/>
<path d="M41.7785 28.125H20.8896" stroke="#242D3C" stroke-width="2.40741" stroke-miterlimit="10"/>
<path d="M31.3341 35.0693H20.8896" stroke="#242D3C" stroke-width="2.40741" stroke-miterlimit="10"/>
</svg>
