<svg width="20" height="14" viewBox="0 0 20 14" fill="none" xmlns="http://www.w3.org/2000/svg">
<path d="M0.714285 0H19.2857C19.6808 0 20 0.284375 20 0.636364V13.3636C20 13.7156 19.6808 14 19.2857 14H0.714285C0.319197 14 0 13.7156 0 13.3636V0.636364C0 0.284375 0.319197 0 0.714285 0ZM2.51786 2.16562L9.56027 7.04773C9.73437 7.16903 9.97768 7.16903 10.1518 7.04773L17.1964 2.16562C17.223 2.14737 17.2425 2.12216 17.2521 2.09355C17.2618 2.06493 17.2612 2.03434 17.2503 2.00605C17.2395 1.97777 17.219 1.95321 17.1917 1.93582C17.1645 1.91843 17.1318 1.90909 17.0982 1.90909H2.61607C2.58253 1.90909 2.54982 1.91843 2.52254 1.93582C2.49526 1.95321 2.47476 1.97777 2.46394 2.00605C2.45311 2.03434 2.45248 2.06493 2.46215 2.09355C2.47182 2.12216 2.4913 2.14737 2.51786 2.16562Z" fill="#BEA479"/>
</svg>
