<svg width="206" height="66" viewBox="0 0 206 66" fill="none" xmlns="http://www.w3.org/2000/svg">
<path d="M126.621 20.7636V0H129.183V7.9134C130.368 6.798 131.699 6.237 133.169 6.237C134.953 6.237 136.344 6.8112 137.335 7.9662C138.327 9.1212 138.819 10.7778 138.819 12.9492V20.757H136.257V12.5268C136.257 11.3388 135.958 10.4082 135.352 9.735C134.753 9.0618 133.908 8.7252 132.817 8.7252C131.765 8.7252 130.9 9.1212 130.208 9.9066C129.516 10.692 129.177 11.748 129.177 13.0746V20.7636H126.621Z" fill="white"/>
<path d="M141.907 2.48143C141.907 2.03923 142.06 1.66963 142.36 1.37263C142.659 1.07563 143.032 0.923828 143.478 0.923828C143.944 0.923828 144.323 1.06903 144.616 1.35943C144.909 1.64983 145.055 2.02603 145.055 2.48803C145.055 2.93023 144.902 3.29983 144.602 3.59683C144.303 3.89383 143.93 4.04563 143.484 4.04563C143.058 4.04563 142.686 3.89383 142.38 3.58363C142.067 3.27343 141.907 2.90383 141.907 2.48143ZM142.2 20.7634V6.52723H144.762V20.7634H142.2Z" fill="white"/>
<path d="M126.329 24.9941C126.329 24.5519 126.482 24.1823 126.781 23.8853C127.081 23.5883 127.453 23.4365 127.899 23.4365C128.365 23.4365 128.744 23.5817 129.037 23.8721C129.33 24.1625 129.476 24.5387 129.476 25.0007C129.476 25.4429 129.323 25.8125 129.024 26.1095C128.724 26.4065 128.352 26.5583 127.906 26.5583C127.48 26.5583 127.107 26.4065 126.801 26.0963C126.488 25.7861 126.329 25.4165 126.329 24.9941ZM126.621 43.2761V29.0399H129.184V43.2761H126.621Z" fill="white"/>
<path d="M139.112 28.7759C141.109 28.7759 142.826 29.5151 144.25 30.9869C145.674 32.4653 146.393 34.1813 146.393 36.1547C146.393 38.1809 145.687 39.9233 144.283 41.3753C142.872 42.8339 141.155 43.5599 139.112 43.5599C137.096 43.5599 135.379 42.8339 133.975 41.3753C132.571 39.9167 131.865 38.1809 131.865 36.1547C131.865 34.1681 132.571 32.4389 133.975 30.9737C135.379 29.5085 137.096 28.7759 139.112 28.7759ZM139.112 31.1783C137.828 31.1783 136.757 31.6535 135.878 32.5973C135.006 33.5411 134.567 34.7225 134.567 36.1283C134.567 37.5209 135.006 38.6957 135.878 39.6593C136.75 40.6229 137.828 41.1047 139.112 41.1047C140.39 41.1047 141.481 40.6295 142.373 39.6857C143.265 38.7419 143.711 37.5539 143.711 36.1217C143.711 34.7093 143.265 33.5345 142.373 32.5907C141.481 31.6469 140.397 31.1783 139.112 31.1783Z" fill="white"/>
<path d="M166.151 31.7524C166.151 32.6962 166.49 33.4354 167.169 33.9766C167.848 34.5178 168.666 34.7884 169.618 34.7884C170.57 34.7884 171.355 34.5376 171.974 34.036C172.692 33.4552 173.052 32.6962 173.052 31.7524V29.0068H175.587V31.9834C175.587 33.0394 175.334 33.9436 174.829 34.696C174.323 35.4484 173.731 35.917 173.052 36.1084C173.731 36.2998 174.323 36.775 174.829 37.5406C175.334 38.2996 175.587 39.2236 175.587 40.2994V43.276H173.052V40.5304C173.052 39.5866 172.712 38.8474 172.034 38.3062C171.355 37.765 170.55 37.501 169.618 37.501C168.666 37.501 167.848 37.765 167.169 38.293C166.49 38.821 166.151 39.5668 166.151 40.5304V43.276H163.615V40.2994C163.615 39.2434 163.868 38.326 164.374 37.5538C164.88 36.7816 165.472 36.2998 166.151 36.1084C165.472 35.917 164.88 35.4484 164.374 34.7092C163.868 33.97 163.615 33.0592 163.615 31.9834V29.0068H166.151V31.7524Z" fill="white"/>
<path d="M123.906 57.6574C123.906 55.8358 124.558 54.2452 125.863 52.8856C127.167 51.526 128.751 50.8462 130.621 50.8462C132.471 50.8462 134.062 51.526 135.379 52.8922C136.697 54.2584 137.362 55.8358 137.362 57.6376L137.282 58.654H126.495C126.708 59.7298 127.194 60.601 127.952 61.2676C128.704 61.9342 129.596 62.2642 130.621 62.2642C131.413 62.2642 132.098 62.0794 132.684 61.7098C133.27 61.3402 133.769 60.8452 134.181 60.2314L135.932 61.8748C135.412 62.5942 134.727 63.1948 133.882 63.6766C132.877 64.2508 131.786 64.5346 130.621 64.5346C128.731 64.5346 127.14 63.8614 125.849 62.515C124.552 61.1686 123.906 59.5516 123.906 57.6574ZM130.621 53.0704C129.629 53.0704 128.751 53.4004 127.979 54.0604C127.207 54.7204 126.715 55.5784 126.495 56.6278H134.774C134.574 55.5784 134.088 54.7204 133.316 54.0604C132.544 53.4004 131.646 53.0704 130.621 53.0704Z" fill="white"/>
<path d="M139.532 57.6574C139.532 55.8358 140.184 54.2452 141.488 52.8856C142.793 51.526 144.376 50.8462 146.246 50.8462C147.325 50.8462 148.329 51.0904 149.254 51.5788C150.179 52.0672 151.011 52.7932 151.75 53.7568L150 55.4398C149.64 54.7072 149.121 54.133 148.449 53.704C147.777 53.275 147.045 53.0638 146.253 53.0638C145.082 53.0638 144.084 53.506 143.258 54.3904C142.433 55.2748 142.021 56.3704 142.021 57.6772C142.021 58.9444 142.433 60.0268 143.258 60.9244C144.084 61.822 145.082 62.2642 146.253 62.2642C147.118 62.2642 147.89 62.02 148.569 61.5316C149.161 61.1158 149.64 60.5482 150 59.8288L151.89 61.4458C151.331 62.3236 150.605 63.0298 149.707 63.571C148.649 64.2178 147.498 64.5412 146.253 64.5412C144.383 64.5412 142.799 63.868 141.495 62.5216C140.184 61.1686 139.532 59.5516 139.532 57.6574Z" fill="white"/>
<path d="M159.995 50.8462C161.845 50.8462 163.436 51.5326 164.753 52.8988C166.071 54.265 166.736 55.8622 166.736 57.6838C166.736 59.5582 166.084 61.1686 164.78 62.5216C163.475 63.868 161.878 64.5412 159.995 64.5412C158.125 64.5412 156.541 63.868 155.237 62.5216C153.932 61.1752 153.28 59.5582 153.28 57.6838C153.28 55.8424 153.932 54.2452 155.237 52.8856C156.541 51.526 158.125 50.8462 159.995 50.8462ZM159.995 53.0704C158.81 53.0704 157.812 53.506 157 54.3838C156.188 55.2616 155.789 56.3506 155.789 57.6574C155.789 58.9444 156.195 60.0334 157 60.931C157.812 61.8286 158.804 62.2708 159.995 62.2708C161.18 62.2708 162.191 61.8352 163.016 60.9574C163.841 60.0796 164.254 58.984 164.254 57.6574C164.254 56.3506 163.841 55.2616 163.016 54.3838C162.191 53.506 161.18 53.0704 159.995 53.0704Z" fill="white"/>
<path d="M93.5404 0H57.0653C59.4411 3.1152 60.5857 5.9466 61.8168 11.319L41.6527 13.4904C40.5081 7.359 37.0875 4.8114 29.8604 4.8114C24.0574 4.8114 19.7783 7.9266 19.7783 12.2628C19.7783 14.9028 21.2025 16.8828 24.2504 18.3018C26.1536 19.1532 26.1536 19.1532 37.3737 21.417C44.6008 22.9218 49.166 24.5256 52.7796 26.796C59.6274 31.0332 63.0546 37.356 63.0546 46.035C63.0546 53.1102 60.772 59.1492 56.3998 63.393C55.9939 63.7824 55.5679 64.152 55.1287 64.515H93.5404V0Z" fill="white"/>
<path d="M20.0643 51.0314C22.3469 53.8628 26.3398 55.4666 31.1911 55.4666C38.5181 55.4666 42.8903 52.259 42.8903 46.979C42.8903 44.0552 41.3664 41.5076 38.8974 40.379C36.901 39.4352 34.5186 38.7752 24.6295 36.5114C15.8784 34.6238 12.8371 33.4952 9.31675 31.04L0 45.9362L17.5887 44.0486C17.968 47.4476 18.6335 49.1438 20.0643 51.0314Z" fill="white"/>
<path d="M154.226 6.27002C152.828 6.27002 151.63 6.62642 150.645 7.32602V6.27002H148.11V12.9954V20.7636H150.645V12.5334C150.645 11.3982 150.978 10.4808 151.65 9.77462C152.322 9.06842 153.181 8.71862 154.226 8.71862C155.27 8.71862 156.129 9.06842 156.788 9.76142C157.447 10.4544 157.779 11.3784 157.779 12.5334V20.7636H160.315V12.9954C160.315 10.857 159.762 9.20042 158.658 8.02562C157.546 6.85742 156.069 6.27002 154.226 6.27002Z" fill="white"/>
<path d="M166.251 6.52734H163.689V20.7635H166.251V6.52734Z" fill="white"/>
<path d="M164.967 0.923828C164.521 0.923828 164.148 1.07563 163.849 1.37263C163.549 1.66963 163.396 2.03923 163.396 2.48143C163.396 2.90383 163.549 3.27343 163.862 3.57703C164.175 3.88723 164.541 4.03903 164.967 4.03903C165.412 4.03903 165.785 3.88723 166.085 3.59023C166.384 3.29323 166.537 2.92363 166.537 2.48143C166.537 2.01943 166.391 1.64323 166.098 1.35283C165.812 1.06903 165.432 0.923828 164.967 0.923828Z" fill="white"/>
<path d="M180.139 8.02538C179.035 6.85058 177.557 6.26318 175.714 6.26318C174.316 6.26318 173.119 6.61958 172.134 7.31918V6.26978H169.598V12.9952V20.7634H172.134V12.5332C172.134 11.398 172.466 10.4806 173.139 9.77439C173.811 9.06818 174.669 8.71838 175.714 8.71838C176.759 8.71838 177.617 9.06818 178.276 9.76118C178.935 10.4542 179.268 11.3782 179.268 12.5332V20.7634H181.803V12.9952C181.796 10.8568 181.244 9.20018 180.139 8.02538Z" fill="white"/>
<path d="M157.779 28.9805V28.9937V37.2371C157.779 38.3723 157.447 39.2897 156.774 39.9959C156.102 40.7021 155.257 41.0519 154.226 41.0519C153.174 41.0519 152.316 40.7021 151.65 39.9959C150.978 39.2963 150.645 38.3723 150.645 37.2371V28.9805H148.11V36.7751C148.11 38.9135 148.662 40.5701 149.767 41.7449C150.872 42.9197 152.349 43.5071 154.192 43.5071C155.59 43.5071 156.788 43.1507 157.773 42.4511V43.4939H160.308V36.7751V28.9937V28.9805H157.779Z" fill="white"/>
<path d="M198.247 12.1441C198.148 11.4445 197.935 10.7647 197.608 10.1113C196.99 8.91665 196.111 7.97285 194.973 7.27985C193.835 6.58685 192.577 6.24365 191.2 6.24365C189.124 6.24365 187.407 6.93665 186.049 8.32265C184.691 9.70865 184.013 11.4775 184.013 13.6357C184.013 16.3087 185.071 18.3745 187.187 19.8133C188.312 20.6053 189.603 20.9947 191.06 20.9947C191.646 20.9947 192.165 20.9485 192.631 20.8627C192.997 20.7967 193.343 20.6977 193.669 20.5921V18.0511C192.904 18.4141 192.132 18.5923 191.346 18.5923C189.949 18.5923 188.811 18.1237 187.926 17.1931C187.041 16.2559 186.601 15.0481 186.601 13.5697C186.601 12.1045 187.041 10.9231 187.912 10.0189C188.784 9.11465 189.889 8.65925 191.233 8.65925C192.591 8.65925 193.695 9.11465 194.554 10.0189C195.406 10.9231 195.838 12.1375 195.838 13.6555V20.1499C195.838 20.3611 195.832 20.5591 195.812 20.7571C195.712 21.9847 195.299 22.9681 194.574 23.6875C193.729 24.5257 192.577 24.9415 191.127 24.9415C190.042 24.9415 188.698 24.6709 187.107 24.1297L186.522 26.5849C188.252 27.1261 189.762 27.3967 191.067 27.3967C193.336 27.3967 195.126 26.7367 196.437 25.4167C197.748 24.0967 198.4 22.2619 198.4 19.9189V14.7841C198.394 13.7281 198.34 12.8437 198.247 12.1441Z" fill="white"/>
<path d="M190.168 45.0186V57.6708C190.168 59.0634 189.769 60.1788 188.97 61.0302C188.172 61.875 187.154 62.2974 185.909 62.2974C184.631 62.2974 183.593 61.875 182.795 61.0302C181.996 60.1854 181.597 59.0568 181.597 57.6444C181.597 56.2914 182.009 55.1958 182.835 54.3576C183.66 53.5194 184.711 53.1036 185.989 53.1036C186.668 53.1036 187.34 53.2488 188.005 53.5326V51.2028C187.746 51.1236 187.48 51.051 187.2 51.0048C186.768 50.9256 186.282 50.886 185.743 50.886C183.893 50.886 182.329 51.5394 181.064 52.8528C179.793 54.1662 179.161 55.77 179.161 57.6774C179.161 59.6772 179.793 61.3206 181.064 62.6142C182.329 63.9078 183.926 64.5546 185.849 64.5546C187.147 64.5546 188.318 64.2312 189.37 63.591C190.421 62.9508 191.233 62.0664 191.812 60.9444C192.151 60.3042 192.358 59.697 192.431 59.1228C192.504 58.5552 192.537 57.7236 192.537 56.6346V45.0186H190.168Z" fill="white"/>
<path d="M108.879 15.233C109.379 15.233 109.791 15.233 110.117 15.233C110.443 15.233 110.856 15.233 111.355 15.233C111.508 16.2494 112.04 17.0546 112.945 17.6618C113.851 18.2624 115.002 18.566 116.399 18.566C117.724 18.566 118.815 18.2492 119.68 17.6156C120.545 16.982 120.978 16.1834 120.978 15.2264C120.978 14.4014 120.658 13.715 120.026 13.1672C119.394 12.6194 118.402 12.1772 117.052 11.8472L114.536 11.2004C112.759 10.7516 111.468 10.1114 110.663 9.27982C109.858 8.44822 109.452 7.33942 109.452 5.96002C109.452 4.31002 110.091 2.97022 111.362 1.94722C112.633 0.924216 114.31 0.416016 116.386 0.416016C118.283 0.416016 119.867 0.917616 121.144 1.92742C122.422 2.93062 123.107 4.22422 123.207 5.79502H120.745C120.572 4.79842 120.093 4.01962 119.314 3.45862C118.529 2.89762 117.524 2.61382 116.306 2.61382C115.002 2.61382 113.95 2.91082 113.158 3.50482C112.367 4.09882 111.967 4.89082 111.967 5.87422C111.967 6.63981 112.26 7.26022 112.846 7.73542C113.431 8.21062 114.396 8.61981 115.747 8.96301L117.797 9.50422C119.827 10.0058 121.284 10.679 122.169 11.5238C123.054 12.3686 123.493 13.5038 123.493 14.936C123.493 16.7246 122.835 18.1436 121.517 19.1996C120.199 20.2556 118.416 20.7836 116.166 20.7836C114.09 20.7836 112.393 20.282 111.062 19.2722C109.738 18.2558 109.006 16.9094 108.879 15.233Z" fill="white"/>
<path d="M108.879 37.9962C109.379 37.9962 109.791 37.9962 110.117 37.9962C110.443 37.9962 110.856 37.9962 111.355 37.9962C111.508 39.0126 112.04 39.8178 112.945 40.425C113.851 41.0256 115.002 41.3292 116.399 41.3292C117.724 41.3292 118.815 41.0124 119.68 40.3788C120.545 39.7452 120.978 38.9466 120.978 37.9896C120.978 37.1646 120.658 36.4782 120.026 35.9304C119.394 35.3826 118.402 34.9404 117.052 34.6104L114.536 33.9636C112.759 33.5148 111.468 32.8746 110.663 32.043C109.858 31.2114 109.452 30.1026 109.452 28.7232C109.452 27.0732 110.091 25.7334 111.362 24.7104C112.633 23.6874 114.31 23.1792 116.386 23.1792C118.283 23.1792 119.867 23.6808 121.144 24.6906C122.422 25.6938 123.107 26.9874 123.207 28.5582H120.745C120.572 27.5616 120.093 26.7828 119.314 26.2218C118.529 25.6608 117.524 25.377 116.306 25.377C115.002 25.377 113.95 25.674 113.158 26.268C112.367 26.862 111.967 27.654 111.967 28.6374C111.967 29.403 112.26 30.0234 112.846 30.4986C113.431 30.9738 114.396 31.383 115.747 31.7262L117.797 32.2674C119.827 32.769 121.284 33.4422 122.169 34.287C123.054 35.1318 123.493 36.267 123.493 37.6992C123.493 39.4878 122.835 40.9068 121.517 41.9628C120.199 43.0188 118.416 43.5468 116.166 43.5468C114.09 43.5468 112.393 43.0452 111.062 42.0354C109.738 41.0256 109.006 39.6792 108.879 37.9962Z" fill="white"/>
<path d="M111.209 57.0968C111.209 58.5884 111.209 59.8226 111.209 60.806C111.209 61.7894 111.209 63.0236 111.209 64.5152H108.853V45.7778H116.067C117.89 45.7778 119.348 46.286 120.446 47.3024C121.544 48.3188 122.089 49.6718 122.089 51.3614C122.089 52.6682 121.757 53.7968 121.085 54.7472C120.412 55.6976 119.481 56.3642 118.296 56.7338L122.668 64.5086H119.907L115.861 57.0968H111.209ZM111.209 47.8568C111.209 48.827 111.209 49.6652 111.209 50.378C111.209 51.0908 111.209 51.797 111.209 52.5098C111.209 53.2226 111.209 54.0608 111.209 55.031H115.854C117.065 55.031 118.003 54.7208 118.662 54.1004C119.321 53.48 119.647 52.5956 119.647 51.4472C119.647 50.3252 119.301 49.4408 118.616 48.8138C117.924 48.1802 116.972 47.8634 115.747 47.8634H111.209V47.8568Z" fill="white"/>
<path d="M200.43 64.6336C198.899 64.6336 197.628 64.2904 196.643 63.6106C195.652 62.9242 195.086 62.0002 194.966 60.8518L194.953 60.7198H197.402L197.429 60.8056C197.602 61.3402 197.954 61.7758 198.46 62.0992C198.973 62.4226 199.665 62.5876 200.503 62.5876C201.388 62.5876 202.127 62.3962 202.693 62.02C203.252 61.6504 203.525 61.1884 203.525 60.6076C203.525 60.172 203.365 59.8222 203.032 59.5318C202.693 59.2348 202.167 58.9972 201.462 58.8256L199.132 58.2646C197.848 57.9544 196.89 57.499 196.271 56.9116C195.645 56.3176 195.332 55.5058 195.332 54.5026C195.332 53.3542 195.838 52.3774 196.83 51.6118C197.815 50.8462 199.053 50.4634 200.523 50.4634C201.967 50.4634 203.178 50.8 204.117 51.46C205.062 52.1266 205.614 53.044 205.761 54.1792L205.781 54.3112H203.411L203.385 54.2188C203.252 53.7106 202.939 53.2948 202.453 52.9912C201.961 52.681 201.308 52.5226 200.517 52.5226C199.738 52.5226 199.072 52.7008 198.54 53.0572C198.014 53.407 197.761 53.8492 197.761 54.4168C197.761 54.8392 197.934 55.1824 198.294 55.4662C198.667 55.7566 199.245 56.0008 200.024 56.1856L202.114 56.6872C203.405 56.9974 204.383 57.4594 205.022 58.0468C205.667 58.6474 206 59.4592 206 60.4492C206 61.69 205.461 62.713 204.39 63.4918C203.325 64.2442 201.994 64.6336 200.43 64.6336Z" fill="white"/>
<path d="M196.896 51.6908C197.861 50.9384 199.066 50.5688 200.51 50.5688C201.941 50.5688 203.112 50.8922 204.03 51.5456C204.949 52.1924 205.481 53.0768 205.627 54.1856H203.484C203.345 53.6444 203.012 53.2088 202.5 52.8854C201.987 52.562 201.322 52.397 200.496 52.397C199.691 52.397 199.012 52.5818 198.453 52.9514C197.901 53.321 197.622 53.8094 197.622 54.41C197.622 54.8654 197.815 55.2482 198.201 55.5518C198.586 55.8554 199.179 56.1062 199.977 56.2976L202.067 56.7992C203.345 57.1094 204.296 57.5516 204.922 58.1324C205.547 58.7132 205.86 59.4854 205.86 60.449C205.86 61.6568 205.341 62.6403 204.296 63.3927C203.252 64.1451 201.96 64.5213 200.417 64.5213C198.906 64.5213 197.668 64.1912 196.697 63.5246C195.732 62.858 195.186 61.967 195.073 60.8516H197.302C197.488 61.4192 197.848 61.868 198.387 62.2046C198.926 62.5412 199.625 62.7128 200.49 62.7128C201.408 62.7128 202.16 62.5148 202.746 62.1254C203.331 61.736 203.631 61.2278 203.631 60.614C203.631 60.1454 203.451 59.756 203.098 59.4458C202.739 59.1356 202.2 58.8914 201.481 58.7132L199.152 58.1522C197.881 57.842 196.949 57.3998 196.35 56.8256C195.752 56.2514 195.452 55.4726 195.452 54.5024C195.452 53.3738 195.931 52.4366 196.896 51.6908Z" fill="white"/>
<path d="M177.065 51.3412C176.393 51.0112 175.641 50.8462 174.816 50.8462C173.704 50.8462 172.753 51.0904 171.954 51.5854V51.0376H169.598V55.7632C169.572 56.047 169.552 56.344 169.552 56.6476V64.2706H169.598H171.954V56.6542C171.954 55.585 172.194 54.727 172.666 54.0868C173.145 53.4466 173.864 53.1232 174.836 53.1232C175.355 53.1232 175.834 53.242 176.266 53.4862C176.699 53.7238 177.018 54.034 177.238 54.4102L178.802 52.78C178.316 52.1464 177.737 51.6712 177.065 51.3412Z" fill="white"/>
</svg>
