<svg width="1440" height="30" viewBox="0 0 1440 30" fill="none" xmlns="http://www.w3.org/2000/svg">
<path d="M0.00707054 27.4336C0.00707054 18.8979 -0.0154311 10.3743 0.0595744 1.83866C0.0670749 1.22983 0.82463 0.609053 1.27466 0.0718467C1.39467 -0.0714084 1.67969 0.0479709 1.88971 0.0479709C480.62 0.0479709 959.35 0.0479709 1438.08 -0.0117188C1439.65 -0.0117188 1440.04 0.477736 1440.01 2.72207C1439.89 10.1594 1439.96 17.6087 1439.96 25.046C1429.95 25.4757 1419.93 26.3114 1409.92 26.2517C1382.35 26.0846 1354.79 25.5593 1327.22 25.1295C1312.26 24.9027 1297.29 24.652 1282.33 24.3178C1260.55 23.8403 1238.77 22.9091 1216.99 22.8733C1202.61 22.8494 1188.24 24.4371 1173.85 24.6759C1154.15 25.0102 1134.43 24.4371 1114.73 24.8311C1082.1 25.4757 1049.47 27.1232 1016.83 27.3619C982.444 27.6126 948.054 26.7412 913.664 26.2995C900.785 26.1323 887.914 25.81 875.036 25.4996C851.657 24.9385 828.278 23.9238 804.898 23.8999C790.302 23.888 775.714 25.81 761.11 26.0249C738.203 26.3711 715.289 25.9533 692.383 25.9652C680.892 25.9771 669.401 26.013 657.918 26.4069C640.899 26.9919 623.88 28.5199 606.861 28.5557C575.607 28.6274 544.352 27.923 513.097 27.4813C500.084 27.3022 487.07 27.0038 474.057 26.6815C451.998 26.1323 429.946 25.237 407.887 25.0818C399.216 25.0221 390.546 26.9322 381.86 27.2187C370.242 27.6126 358.608 27.2306 346.975 27.3261C309.81 27.6365 272.659 27.732 235.487 29.2601C194.174 30.9553 152.793 29.0571 111.435 28.6512C98.6993 28.5199 85.9633 28.0305 73.2274 27.8991C48.8206 27.7081 24.4139 27.6007 0.00707054 27.4336Z" fill="white"/>
</svg>
